<svg width="256" height="256" viewBox="0 0 256 256" fill="none" xmlns="http://www.w3.org/2000/svg">
<circle cx="128" cy="128" r="128" fill="url(#paint0_linear_1_16)"/>
<path d="M57.888 105.6C57.888 102.613 57.632 100.181 57.12 98.304C56.6293 96.4267 55.936 94.976 55.04 93.952C54.1653 92.928 53.1307 92.224 51.936 91.84C50.7413 91.456 49.4507 91.264 48.064 91.264H45.824V120.416H48.064C49.5147 120.416 50.8373 120.192 52.032 119.744C53.248 119.275 54.2933 118.496 55.168 117.408C56.0427 116.299 56.7147 114.784 57.184 112.864C57.6533 110.944 57.888 108.523 57.888 105.6ZM68.768 105.6C68.768 109.205 68.384 112.299 67.616 114.88C66.848 117.44 65.7707 119.573 64.384 121.28C63.0187 122.987 61.4293 124.331 59.616 125.312C57.8027 126.293 55.8507 126.987 53.76 127.392C51.6693 127.797 49.5147 128 47.296 128H35.328V83.648H46.528C49.3653 83.648 52.1067 83.9467 54.752 84.544C57.4187 85.12 59.7973 86.1973 61.888 87.776C64 89.3333 65.6747 91.552 66.912 94.432C68.1493 97.2907 68.768 101.013 68.768 105.6ZM107.335 105.792C107.335 110.485 106.663 114.581 105.319 118.08C103.975 121.557 101.98 124.267 99.335 126.208C96.711 128.128 93.4577 129.088 89.575 129.088C85.7137 129.088 82.4603 128.149 79.815 126.272C77.1697 124.373 75.175 121.685 73.831 118.208C72.487 114.731 71.815 110.592 71.815 105.792C71.815 101.099 72.487 97.0133 73.831 93.536C75.175 90.0587 77.1697 87.36 79.815 85.44C82.4603 83.4987 85.7137 82.528 89.575 82.528C93.4577 82.528 96.711 83.4667 99.335 85.344C101.98 87.2213 103.975 89.8987 105.319 93.376C106.663 96.8533 107.335 100.992 107.335 105.792ZM96.583 105.792C96.583 100.331 96.039 96.3627 94.951 93.888C93.863 91.4133 92.071 90.176 89.575 90.176C87.079 90.176 85.287 91.424 84.199 93.92C83.111 96.3947 82.567 100.352 82.567 105.792C82.567 111.253 83.1217 115.221 84.231 117.696C85.3403 120.171 87.1217 121.408 89.575 121.408C92.135 121.408 93.9377 120.16 94.983 117.664C96.0497 115.147 96.583 111.189 96.583 105.792ZM131.086 128L119.406 92.32C119.555 93.28 119.715 94.4427 119.886 95.808C120.078 97.152 120.259 98.656 120.43 100.32C120.601 101.963 120.739 103.712 120.846 105.568C120.953 107.424 121.006 109.323 121.006 111.264V128H112.078V83.648H125.166L136.494 119.136C136.259 117.792 136.014 116.192 135.758 114.336C135.523 112.459 135.321 110.368 135.15 108.064C134.979 105.76 134.894 103.285 134.894 100.64V83.648H143.822V128H131.086ZM160.405 83.296C160.405 81.6747 160.981 80.3093 162.133 79.2C163.306 78.0693 164.746 77.504 166.453 77.504C168.181 77.504 169.61 78.0693 170.741 79.2C171.872 80.3093 172.437 81.6747 172.437 83.296C172.437 84.2133 172.288 85.1733 171.989 86.176C171.712 87.1787 171.189 88.4373 170.421 89.952L165.845 99.456H160.149L162.901 88.128C162.133 87.5733 161.525 86.9013 161.077 86.112C160.629 85.3013 160.405 84.3627 160.405 83.296ZM209.884 91.68V128H199.388V91.68H186.94V83.648H222.844L221.756 91.68H209.884Z" fill="#1E1E2E"/>
<path d="M93.8 191V184.216H98.28V163.736H93.8V157.016H105.992L107.848 164.664C109.064 161.741 110.611 159.565 112.488 158.136C114.387 156.707 116.701 155.992 119.432 155.992C120.584 155.992 121.608 156.088 122.504 156.28C123.4 156.451 124.243 156.696 125.032 157.016L121.96 165.368C121.341 165.197 120.723 165.069 120.104 164.984C119.485 164.899 118.803 164.856 118.056 164.856C115.837 164.856 113.885 165.763 112.2 167.576C110.536 169.389 109.267 171.693 108.392 174.488V184.216H115.112V191H93.8ZM116.808 171.224V161.304L118.312 157.016H125.032L123.144 171.224H116.808ZM156.975 155.896C158.596 155.896 159.93 156.237 160.975 156.92C162.02 157.603 162.799 158.68 163.311 160.152C163.823 161.603 164.079 163.501 164.079 165.848V191H155.407V167C155.407 165.805 155.29 164.963 155.055 164.472C154.842 163.981 154.394 163.736 153.711 163.736C153.178 163.736 152.623 163.896 152.047 164.216C151.492 164.515 150.874 165.091 150.191 165.944V191H143.087V167C143.087 165.805 142.97 164.963 142.735 164.472C142.522 163.981 142.074 163.736 141.391 163.736C140.858 163.736 140.303 163.896 139.727 164.216C139.172 164.515 138.554 165.091 137.871 165.944V191H129.071V157.016H136.495L137.167 160.312C138.234 158.861 139.311 157.763 140.399 157.016C141.487 156.269 142.778 155.896 144.271 155.896C145.551 155.896 146.639 156.227 147.535 156.888C148.452 157.528 149.103 158.541 149.487 159.928C150.511 158.733 151.642 157.763 152.879 157.016C154.116 156.269 155.482 155.896 156.975 155.896Z" fill="#1E1E2E"/>
<defs>
<linearGradient id="paint0_linear_1_16" x1="245.5" y1="105" x2="112" y2="246.5" gradientUnits="userSpaceOnUse">
<stop stop-color="#F38BA8"/>
<stop offset="1" stop-color="#A6E3A1"/>
</linearGradient>
</defs>
</svg>
