<svg width="800" height="500" viewBox="0 0 800 500" fill="none" xmlns="http://www.w3.org/2000/svg">
<rect width="800" height="500" fill="#313244"/>
<circle cx="770" cy="30" r="16" fill="#F38BA8"/>
<circle cx="729" cy="30" r="16" fill="#F9E2AF"/>
<circle cx="688" cy="30" r="16" fill="#94E2D5"/>
<path d="M68.368 123.312L67.376 130.624H70.144V132.336H67.12L66.416 138H64.672L65.424 132.336H60.288L59.552 138H57.808L58.576 132.336H55.856V130.624H58.8L59.808 123.312H57.04V121.584H60.032L60.784 116.016H62.512L61.712 121.584H66.896L67.632 116.016H69.376L68.576 121.584H71.328V123.312H68.368ZM60.528 130.624H65.664L66.672 123.312H61.504L60.528 130.624ZM104.455 138L97.431 119.216C97.463 119.547 97.5057 120.016 97.559 120.624C97.623 121.232 97.6817 121.936 97.735 122.736C97.799 123.536 97.8523 124.384 97.895 125.28C97.9377 126.176 97.959 127.072 97.959 127.968V138H94.663V115.92H99.479L106.519 134.72C106.466 134.272 106.396 133.616 106.311 132.752C106.236 131.877 106.162 130.864 106.087 129.712C106.023 128.549 105.991 127.307 105.991 125.984V115.92H109.287V138H104.455ZM129.562 126.96C129.562 129.232 129.248 131.232 128.619 132.96C127.989 134.677 127.051 136.021 125.803 136.992C124.555 137.952 123.008 138.432 121.163 138.432C119.328 138.432 117.781 137.963 116.523 137.024C115.275 136.075 114.336 134.747 113.707 133.04C113.077 131.323 112.763 129.307 112.763 126.992C112.763 124.709 113.077 122.709 113.707 120.992C114.336 119.264 115.275 117.915 116.523 116.944C117.781 115.963 119.328 115.472 121.163 115.472C123.008 115.472 124.555 115.947 125.803 116.896C127.051 117.845 127.989 119.184 128.619 120.912C129.248 122.629 129.562 124.645 129.562 126.96ZM125.723 126.96C125.723 124.101 125.365 121.957 124.651 120.528C123.947 119.088 122.784 118.368 121.163 118.368C119.541 118.368 118.373 119.093 117.659 120.544C116.955 121.984 116.603 124.133 116.603 126.992C116.603 129.84 116.965 131.979 117.691 133.408C118.416 134.827 119.573 135.536 121.163 135.536C122.805 135.536 123.973 134.821 124.667 133.392C125.371 131.952 125.723 129.808 125.723 126.96ZM142.158 118.912V138H138.446V118.912H131.822V115.92H148.942L148.558 118.912H142.158ZM186.677 131.76C186.677 133.061 186.341 134.219 185.669 135.232C185.008 136.235 184.048 137.019 182.789 137.584C181.541 138.149 180.032 138.432 178.261 138.432C176.469 138.432 174.896 138.165 173.541 137.632C172.197 137.088 171.061 136.368 170.133 135.472L172.165 133.2C172.954 133.915 173.845 134.48 174.837 134.896C175.829 135.301 176.965 135.504 178.245 135.504C179.077 135.504 179.84 135.376 180.533 135.12C181.226 134.853 181.781 134.459 182.197 133.936C182.613 133.403 182.821 132.736 182.821 131.936C182.821 131.285 182.688 130.736 182.421 130.288C182.154 129.84 181.69 129.435 181.029 129.072C180.378 128.709 179.466 128.357 178.293 128.016C176.736 127.547 175.429 127.024 174.373 126.448C173.317 125.872 172.517 125.184 171.973 124.384C171.44 123.573 171.173 122.592 171.173 121.44C171.173 120.245 171.498 119.2 172.149 118.304C172.81 117.408 173.712 116.715 174.853 116.224C176.005 115.723 177.306 115.472 178.757 115.472C180.357 115.472 181.754 115.701 182.949 116.16C184.144 116.619 185.21 117.275 186.149 118.128L184.197 120.336C183.418 119.653 182.581 119.157 181.685 118.848C180.8 118.539 179.898 118.384 178.981 118.384C178.234 118.384 177.557 118.491 176.949 118.704C176.341 118.917 175.861 119.232 175.509 119.648C175.157 120.064 174.981 120.592 174.981 121.232C174.981 121.797 175.136 122.283 175.445 122.688C175.765 123.093 176.298 123.472 177.045 123.824C177.802 124.165 178.837 124.533 180.149 124.928C181.386 125.291 182.496 125.739 183.477 126.272C184.469 126.805 185.248 127.504 185.813 128.368C186.389 129.232 186.677 130.363 186.677 131.76ZM201.785 132.688H193.897L192.361 138H188.585L195.609 115.92H200.217L207.257 138H203.321L201.785 132.688ZM194.665 129.824H201.001L197.849 118.8L194.665 129.824ZM215.276 118.736V125.76H223.58V128.576H215.276V138H211.564V115.92H225.148L224.732 118.736H215.276ZM234.016 118.736V125.376H242.016V128.192H234.016V135.184H243.76V138H230.304V115.92H243.583L243.168 118.736H234.016ZM255.475 133.136C256.136 133.136 256.686 133.36 257.123 133.808C257.571 134.256 257.795 134.795 257.795 135.424C257.795 135.733 257.768 136.053 257.715 136.384C257.672 136.704 257.566 137.035 257.395 137.376L254.723 143.52H252.579L254.083 137.344C253.816 137.131 253.598 136.853 253.427 136.512C253.267 136.171 253.187 135.808 253.187 135.424C253.187 134.795 253.406 134.256 253.843 133.808C254.28 133.36 254.824 133.136 255.475 133.136ZM299.498 126.896C299.498 124.848 299.269 123.221 298.81 122.016C298.362 120.8 297.775 119.893 297.05 119.296C296.325 118.699 295.541 118.304 294.698 118.112C293.866 117.92 293.061 117.824 292.282 117.824H289.258V136.24H292.33C293.141 136.24 293.962 136.112 294.794 135.856C295.637 135.6 296.41 135.136 297.114 134.464C297.829 133.792 298.405 132.848 298.842 131.632C299.279 130.405 299.498 128.827 299.498 126.896ZM301.722 126.896C301.722 128.752 301.525 130.331 301.13 131.632C300.735 132.923 300.202 133.989 299.53 134.832C298.869 135.664 298.117 136.309 297.274 136.768C296.431 137.227 295.551 137.547 294.634 137.728C293.727 137.909 292.847 138 291.994 138H287.226V116.016H291.658C292.906 116.016 294.127 116.16 295.322 116.448C296.517 116.725 297.594 117.253 298.554 118.032C299.525 118.8 300.293 119.899 300.858 121.328C301.434 122.747 301.722 124.603 301.722 126.896ZM320.926 127.04C320.926 129.227 320.632 131.173 320.046 132.88C319.459 134.576 318.579 135.909 317.406 136.88C316.243 137.84 314.787 138.32 313.038 138.32C311.299 138.32 309.843 137.851 308.67 136.912C307.496 135.963 306.616 134.645 306.03 132.96C305.443 131.275 305.15 129.317 305.15 127.088C305.15 124.891 305.443 122.939 306.03 121.232C306.616 119.515 307.496 118.165 308.67 117.184C309.843 116.203 311.299 115.712 313.038 115.712C314.787 115.712 316.243 116.192 317.406 117.152C318.579 118.101 319.459 119.429 320.046 121.136C320.632 122.832 320.926 124.8 320.926 127.04ZM318.75 127.04C318.75 124.043 318.307 121.723 317.422 120.08C316.536 118.427 315.075 117.6 313.038 117.6C311 117.6 309.539 118.432 308.654 120.096C307.768 121.76 307.326 124.091 307.326 127.088C307.326 130.075 307.784 132.379 308.702 134C309.619 135.621 311.064 136.432 313.038 136.432C315.064 136.432 316.52 135.621 317.406 134C318.302 132.368 318.75 130.048 318.75 127.04ZM335.697 138L327.377 118.176C327.366 118.347 327.372 118.704 327.393 119.248C327.414 119.781 327.441 120.432 327.473 121.2C327.516 121.968 327.548 122.784 327.569 123.648C327.601 124.501 327.617 125.339 327.617 126.16V138H325.601V116.016H328.529L337.073 135.968C337.094 135.776 337.084 135.28 337.041 134.48C336.998 133.68 336.95 132.693 336.897 131.52C336.854 130.347 336.833 129.104 336.833 127.792V116.016H338.849V138H335.697ZM349.413 114.928C349.413 114.32 349.642 113.808 350.101 113.392C350.559 112.965 351.082 112.752 351.669 112.752C352.277 112.752 352.805 112.965 353.253 113.392C353.701 113.808 353.925 114.32 353.925 114.928C353.925 115.184 353.898 115.429 353.845 115.664C353.791 115.888 353.663 116.224 353.461 116.672L350.725 122.416H348.869L350.149 116.48C349.925 116.331 349.743 116.112 349.605 115.824C349.477 115.536 349.413 115.237 349.413 114.928ZM371.56 117.904V138H369.528V117.904H362.44V116.016H378.68L378.456 117.904H371.56ZM414.623 126.896C414.623 124.848 414.394 123.221 413.935 122.016C413.487 120.8 412.9 119.893 412.175 119.296C411.45 118.699 410.666 118.304 409.823 118.112C408.991 117.92 408.186 117.824 407.407 117.824H404.383V136.24H407.455C408.266 136.24 409.087 136.112 409.919 135.856C410.762 135.6 411.535 135.136 412.239 134.464C412.954 133.792 413.53 132.848 413.967 131.632C414.404 130.405 414.623 128.827 414.623 126.896ZM416.847 126.896C416.847 128.752 416.65 130.331 416.255 131.632C415.86 132.923 415.327 133.989 414.655 134.832C413.994 135.664 413.242 136.309 412.399 136.768C411.556 137.227 410.676 137.547 409.759 137.728C408.852 137.909 407.972 138 407.119 138H402.351V116.016H406.783C408.031 116.016 409.252 116.16 410.447 116.448C411.642 116.725 412.719 117.253 413.679 118.032C414.65 118.8 415.418 119.899 415.983 121.328C416.559 122.747 416.847 124.603 416.847 126.896ZM436.051 127.04C436.051 129.227 435.757 131.173 435.171 132.88C434.584 134.576 433.704 135.909 432.531 136.88C431.368 137.84 429.912 138.32 428.163 138.32C426.424 138.32 424.968 137.851 423.795 136.912C422.621 135.963 421.741 134.645 421.155 132.96C420.568 131.275 420.275 129.317 420.275 127.088C420.275 124.891 420.568 122.939 421.155 121.232C421.741 119.515 422.621 118.165 423.795 117.184C424.968 116.203 426.424 115.712 428.163 115.712C429.912 115.712 431.368 116.192 432.531 117.152C433.704 118.101 434.584 119.429 435.171 121.136C435.757 122.832 436.051 124.8 436.051 127.04ZM433.875 127.04C433.875 124.043 433.432 121.723 432.547 120.08C431.661 118.427 430.2 117.6 428.163 117.6C426.125 117.6 424.664 118.432 423.779 120.096C422.893 121.76 422.451 124.091 422.451 127.088C422.451 130.075 422.909 132.379 423.827 134C424.744 135.621 426.189 136.432 428.163 136.432C430.189 136.432 431.645 135.621 432.531 134C433.427 132.368 433.875 130.048 433.875 127.04ZM472.57 116.016V117.76H467.578V136.256H472.57V138H460.506V136.256H465.498V117.76H460.506V116.016H472.57ZM486.685 117.904V138H484.653V117.904H477.565V116.016H493.805L493.581 117.904H486.685Z" fill="#A6ADC8" fill-opacity="0.658824"/>
<path d="M62.944 178.144C64.2347 178.144 65.2533 177.904 66 177.424C66.7573 176.933 67.136 176.283 67.136 175.472C67.136 174.96 67.04 174.517 66.848 174.144C66.6667 173.771 66.288 173.435 65.712 173.136C65.136 172.837 64.2507 172.539 63.056 172.24C61.8933 171.952 60.88 171.621 60.016 171.248C59.1627 170.864 58.496 170.368 58.016 169.76C57.5467 169.152 57.312 168.363 57.312 167.392C57.312 166.443 57.5787 165.627 58.112 164.944C58.656 164.251 59.408 163.723 60.368 163.36C61.328 162.987 62.4427 162.8 63.712 162.8C65.0667 162.8 66.2453 162.981 67.248 163.344C68.2613 163.696 69.12 164.133 69.824 164.656L68.64 166.48C68 166.043 67.296 165.685 66.528 165.408C65.76 165.12 64.832 164.976 63.744 164.976C62.4213 164.976 61.4827 165.184 60.928 165.6C60.3733 166.005 60.096 166.533 60.096 167.184C60.096 167.675 60.2293 168.085 60.496 168.416C60.7733 168.736 61.2373 169.029 61.888 169.296C62.5387 169.552 63.4347 169.835 64.576 170.144C65.6747 170.432 66.6293 170.779 67.44 171.184C68.2613 171.589 68.9013 172.123 69.36 172.784C69.8187 173.445 70.048 174.299 70.048 175.344C70.048 176.539 69.7067 177.509 69.024 178.256C68.3413 178.992 67.456 179.531 66.368 179.872C65.2907 180.203 64.1493 180.368 62.944 180.368C61.4187 180.368 60.1173 180.149 59.04 179.712C57.9733 179.264 57.0773 178.725 56.352 178.096L57.888 176.32C58.5493 176.864 59.3067 177.307 60.16 177.648C61.024 177.979 61.952 178.144 62.944 178.144ZM79.0915 163.152V175.088C79.0915 176.197 79.3208 176.997 79.7795 177.488C80.2382 177.979 80.9528 178.224 81.9235 178.224C82.8515 178.224 83.7262 177.963 84.5475 177.44C85.3795 176.907 86.0248 176.277 86.4835 175.552V163.152H89.1715V180H86.8835L86.6595 177.728C85.9982 178.581 85.1822 179.237 84.2115 179.696C83.2408 180.144 82.2595 180.368 81.2675 180.368C79.6355 180.368 78.4142 179.936 77.6035 179.072C76.8035 178.197 76.4035 176.976 76.4035 175.408V163.152H79.0915ZM105.671 156.032L108.359 156.368V180H106.007L105.751 177.776C105.122 178.672 104.396 179.328 103.575 179.744C102.764 180.16 101.895 180.368 100.967 180.368C99.5057 180.368 98.3003 180 97.351 179.264C96.4017 178.528 95.6977 177.504 95.239 176.192C94.7803 174.869 94.551 173.339 94.551 171.6C94.551 169.915 94.8123 168.411 95.335 167.088C95.8577 165.755 96.6097 164.709 97.591 163.952C98.583 163.184 99.7723 162.8 101.159 162.8C102.13 162.8 102.983 162.971 103.719 163.312C104.455 163.643 105.106 164.133 105.671 164.784V156.032ZM101.863 164.96C100.455 164.96 99.3723 165.509 98.615 166.608C97.8577 167.707 97.479 169.371 97.479 171.6C97.479 173.051 97.6337 174.267 97.943 175.248C98.2523 176.229 98.7057 176.965 99.303 177.456C99.911 177.947 100.652 178.192 101.527 178.192C102.487 178.192 103.303 177.92 103.975 177.376C104.658 176.832 105.223 176.219 105.671 175.536V167.12C105.212 166.437 104.658 165.909 104.007 165.536C103.356 165.152 102.642 164.96 101.863 164.96ZM121.195 162.8C122.784 162.8 124.112 163.163 125.179 163.888C126.256 164.603 127.061 165.616 127.595 166.928C128.139 168.24 128.411 169.787 128.411 171.568C128.411 173.285 128.133 174.805 127.579 176.128C127.024 177.451 126.208 178.491 125.131 179.248C124.064 179.995 122.741 180.368 121.163 180.368C119.584 180.368 118.256 180.005 117.179 179.28C116.101 178.555 115.285 177.536 114.731 176.224C114.187 174.901 113.914 173.36 113.914 171.6C113.914 169.861 114.192 168.331 114.747 167.008C115.301 165.685 116.117 164.656 117.195 163.92C118.283 163.173 119.616 162.8 121.195 162.8ZM121.195 164.992C119.744 164.992 118.645 165.531 117.899 166.608C117.163 167.675 116.795 169.339 116.795 171.6C116.795 173.819 117.157 175.467 117.883 176.544C118.619 177.621 119.712 178.16 121.163 178.16C122.613 178.16 123.701 177.621 124.427 176.544C125.163 175.467 125.531 173.808 125.531 171.568C125.531 169.328 125.168 167.675 124.443 166.608C123.717 165.531 122.635 164.992 121.195 164.992ZM153.314 180V177.936H155.938V165.216H153.314V163.152H157.986L158.482 167.136C159.132 165.749 159.922 164.677 160.85 163.92C161.778 163.163 163.004 162.784 164.53 162.784C164.999 162.784 165.415 162.821 165.778 162.896C166.151 162.96 166.53 163.045 166.914 163.152L166.13 165.552C165.778 165.456 165.458 165.387 165.17 165.344C164.882 165.291 164.551 165.264 164.178 165.264C162.887 165.264 161.778 165.723 160.85 166.64C159.922 167.557 159.18 168.944 158.626 170.8V177.936H162.05V180H153.314ZM164.322 168.848V165.184L164.594 163.152H166.914L166.53 168.848H164.322ZM183.445 162.8C183.989 162.8 184.506 162.917 184.997 163.152C185.498 163.387 185.909 163.84 186.229 164.512C186.549 165.184 186.709 166.165 186.709 167.456V180H184.213V167.888C184.213 166.832 184.149 166.069 184.021 165.6C183.893 165.131 183.525 164.896 182.917 164.896C182.416 164.896 181.914 165.056 181.413 165.376C180.922 165.685 180.442 166.197 179.973 166.912V180H177.461V167.888C177.461 166.832 177.397 166.069 177.269 165.6C177.141 165.131 176.773 164.896 176.165 164.896C175.642 164.896 175.136 165.056 174.645 165.376C174.165 165.685 173.69 166.197 173.221 166.912V180H170.741V163.152H172.853L173.013 165.104C173.472 164.453 173.984 163.909 174.549 163.472C175.125 163.024 175.834 162.8 176.677 162.8C177.317 162.8 177.92 162.955 178.485 163.264C179.05 163.563 179.466 164.149 179.733 165.024C180.192 164.363 180.709 163.829 181.285 163.424C181.861 163.008 182.581 162.8 183.445 162.8ZM210.684 172.432V170.096H223.516V172.432H210.684ZM239.856 156.032C240.762 156.032 241.584 156.112 242.32 156.272C243.056 156.432 243.754 156.656 244.416 156.944L243.552 158.944C243.008 158.709 242.432 158.533 241.824 158.416C241.216 158.299 240.586 158.24 239.936 158.24C238.762 158.24 237.877 158.469 237.28 158.928C236.693 159.387 236.4 160.091 236.4 161.04V164.464H242.112L241.824 166.576H236.4V180H233.712V166.576H229.696V164.464H233.712V161.104C233.712 160.059 233.978 159.157 234.512 158.4C235.056 157.643 235.792 157.061 236.72 156.656C237.648 156.24 238.693 156.032 239.856 156.032ZM249.251 180V177.936H251.875V165.216H249.251V163.152H253.923L254.419 167.136C255.07 165.749 255.859 164.677 256.787 163.92C257.715 163.163 258.942 162.784 260.467 162.784C260.936 162.784 261.352 162.821 261.715 162.896C262.088 162.96 262.467 163.045 262.851 163.152L262.067 165.552C261.715 165.456 261.395 165.387 261.107 165.344C260.819 165.291 260.488 165.264 260.115 165.264C258.824 165.264 257.715 165.723 256.787 166.64C255.859 167.557 255.118 168.944 254.563 170.8V177.936H257.987V180H249.251ZM260.259 168.848V165.184L260.531 163.152H262.851L262.467 168.848H260.259ZM304.83 171.152V168.816H317.006V171.152H304.83ZM289.869 171.152V168.816H302.045V171.152H289.869ZM325.841 180V163.152H328.129L328.337 165.488C329.02 164.624 329.873 163.963 330.897 163.504C331.932 163.035 332.934 162.8 333.905 162.8C335.558 162.8 336.758 163.237 337.505 164.112C338.262 164.987 338.641 166.203 338.641 167.76V180H335.953V169.744C335.953 168.592 335.889 167.664 335.761 166.96C335.633 166.245 335.366 165.728 334.961 165.408C334.556 165.077 333.926 164.912 333.073 164.912C332.412 164.912 331.788 165.056 331.201 165.344C330.625 165.632 330.108 165.995 329.649 166.432C329.201 166.859 328.828 167.291 328.529 167.728V180H325.841ZM351.445 162.8C353.034 162.8 354.362 163.163 355.429 163.888C356.506 164.603 357.311 165.616 357.845 166.928C358.389 168.24 358.661 169.787 358.661 171.568C358.661 173.285 358.383 174.805 357.829 176.128C357.274 177.451 356.458 178.491 355.381 179.248C354.314 179.995 352.991 180.368 351.413 180.368C349.834 180.368 348.506 180.005 347.429 179.28C346.351 178.555 345.535 177.536 344.981 176.224C344.437 174.901 344.164 173.36 344.164 171.6C344.164 169.861 344.442 168.331 344.997 167.008C345.551 165.685 346.367 164.656 347.445 163.92C348.533 163.173 349.866 162.8 351.445 162.8ZM351.445 164.992C349.994 164.992 348.895 165.531 348.149 166.608C347.413 167.675 347.045 169.339 347.045 171.6C347.045 173.819 347.407 175.467 348.133 176.544C348.869 177.621 349.962 178.16 351.413 178.16C352.863 178.16 353.951 177.621 354.677 176.544C355.413 175.467 355.781 173.808 355.781 171.568C355.781 169.328 355.418 167.675 354.693 166.608C353.967 165.531 352.885 164.992 351.445 164.992ZM364.184 172.432V170.096H377.016V172.432H364.184ZM390.94 162.8C392.433 162.8 393.622 163.163 394.508 163.888C395.404 164.613 396.049 165.637 396.444 166.96C396.838 168.272 397.036 169.808 397.036 171.568C397.036 173.264 396.796 174.779 396.316 176.112C395.846 177.435 395.132 178.475 394.172 179.232C393.212 179.989 392.001 180.368 390.54 180.368C388.694 180.368 387.212 179.717 386.092 178.416V186.448L383.404 186.784V163.152H385.692L385.916 165.504C386.534 164.64 387.27 163.973 388.124 163.504C388.988 163.035 389.926 162.8 390.94 162.8ZM390.3 164.96C389.372 164.96 388.55 165.243 387.836 165.808C387.132 166.363 386.55 166.981 386.092 167.664V176.016C386.529 176.667 387.078 177.184 387.74 177.568C388.412 177.941 389.148 178.128 389.948 178.128C391.345 178.128 392.396 177.595 393.1 176.528C393.804 175.461 394.156 173.803 394.156 171.552C394.156 170.08 394.017 168.859 393.74 167.888C393.462 166.907 393.041 166.176 392.476 165.696C391.91 165.205 391.185 164.96 390.3 164.96ZM402.751 180V177.936H405.375V165.216H402.751V163.152H407.423L407.919 167.136C408.57 165.749 409.359 164.677 410.287 163.92C411.215 163.163 412.442 162.784 413.967 162.784C414.436 162.784 414.852 162.821 415.215 162.896C415.588 162.96 415.967 163.045 416.351 163.152L415.567 165.552C415.215 165.456 414.895 165.387 414.607 165.344C414.319 165.291 413.988 165.264 413.615 165.264C412.324 165.264 411.215 165.723 410.287 166.64C409.359 167.557 408.618 168.944 408.063 170.8V177.936H411.487V180H402.751ZM413.759 168.848V165.184L414.031 163.152H416.351L415.967 168.848H413.759ZM423.891 172.528C423.944 173.829 424.195 174.896 424.643 175.728C425.091 176.549 425.683 177.157 426.419 177.552C427.155 177.936 427.955 178.128 428.819 178.128C429.683 178.128 430.461 178 431.155 177.744C431.859 177.488 432.579 177.109 433.315 176.608L434.579 178.384C433.789 179.003 432.888 179.488 431.875 179.84C430.872 180.192 429.843 180.368 428.787 180.368C427.155 180.368 425.763 180 424.611 179.264C423.459 178.528 422.579 177.504 421.971 176.192C421.373 174.869 421.075 173.339 421.075 171.6C421.075 169.893 421.379 168.379 421.987 167.056C422.595 165.733 423.448 164.693 424.547 163.936C425.645 163.179 426.941 162.8 428.435 162.8C429.853 162.8 431.075 163.136 432.099 163.808C433.123 164.469 433.907 165.419 434.451 166.656C435.005 167.883 435.283 169.349 435.283 171.056C435.283 171.344 435.277 171.616 435.267 171.872C435.256 172.117 435.24 172.336 435.219 172.528H423.891ZM428.467 165.008C427.219 165.008 426.173 165.451 425.331 166.336C424.499 167.221 424.024 168.592 423.907 170.448H432.691C432.659 168.645 432.264 167.291 431.507 166.384C430.749 165.467 429.736 165.008 428.467 165.008ZM446.694 178.144C447.985 178.144 449.003 177.904 449.75 177.424C450.507 176.933 450.886 176.283 450.886 175.472C450.886 174.96 450.79 174.517 450.598 174.144C450.417 173.771 450.038 173.435 449.462 173.136C448.886 172.837 448.001 172.539 446.806 172.24C445.643 171.952 444.63 171.621 443.766 171.248C442.913 170.864 442.246 170.368 441.766 169.76C441.297 169.152 441.062 168.363 441.062 167.392C441.062 166.443 441.329 165.627 441.862 164.944C442.406 164.251 443.158 163.723 444.118 163.36C445.078 162.987 446.193 162.8 447.462 162.8C448.817 162.8 449.995 162.981 450.998 163.344C452.011 163.696 452.87 164.133 453.574 164.656L452.39 166.48C451.75 166.043 451.046 165.685 450.278 165.408C449.51 165.12 448.582 164.976 447.494 164.976C446.171 164.976 445.233 165.184 444.678 165.6C444.123 166.005 443.846 166.533 443.846 167.184C443.846 167.675 443.979 168.085 444.246 168.416C444.523 168.736 444.987 169.029 445.638 169.296C446.289 169.552 447.185 169.835 448.326 170.144C449.425 170.432 450.379 170.779 451.19 171.184C452.011 171.589 452.651 172.123 453.11 172.784C453.569 173.445 453.798 174.299 453.798 175.344C453.798 176.539 453.457 177.509 452.774 178.256C452.091 178.992 451.206 179.531 450.118 179.872C449.041 180.203 447.899 180.368 446.694 180.368C445.169 180.368 443.867 180.149 442.79 179.712C441.723 179.264 440.827 178.725 440.102 178.096L441.638 176.32C442.299 176.864 443.057 177.307 443.91 177.648C444.774 177.979 445.702 178.144 446.694 178.144ZM462.266 172.528C462.319 173.829 462.57 174.896 463.018 175.728C463.466 176.549 464.058 177.157 464.794 177.552C465.53 177.936 466.33 178.128 467.194 178.128C468.058 178.128 468.836 178 469.53 177.744C470.234 177.488 470.954 177.109 471.69 176.608L472.954 178.384C472.164 179.003 471.263 179.488 470.25 179.84C469.247 180.192 468.218 180.368 467.162 180.368C465.53 180.368 464.138 180 462.986 179.264C461.834 178.528 460.954 177.504 460.346 176.192C459.748 174.869 459.45 173.339 459.45 171.6C459.45 169.893 459.754 168.379 460.362 167.056C460.97 165.733 461.823 164.693 462.922 163.936C464.02 163.179 465.316 162.8 466.81 162.8C468.228 162.8 469.45 163.136 470.474 163.808C471.498 164.469 472.282 165.419 472.826 166.656C473.38 167.883 473.658 169.349 473.658 171.056C473.658 171.344 473.652 171.616 473.642 171.872C473.631 172.117 473.615 172.336 473.594 172.528H462.266ZM466.842 165.008C465.594 165.008 464.548 165.451 463.706 166.336C462.874 167.221 462.399 168.592 462.282 170.448H471.066C471.034 168.645 470.639 167.291 469.882 166.384C469.124 165.467 468.111 165.008 466.842 165.008ZM479.501 180V177.936H482.125V165.216H479.501V163.152H484.173L484.669 167.136C485.32 165.749 486.109 164.677 487.037 163.92C487.965 163.163 489.192 162.784 490.717 162.784C491.186 162.784 491.602 162.821 491.965 162.896C492.338 162.96 492.717 163.045 493.101 163.152L492.317 165.552C491.965 165.456 491.645 165.387 491.357 165.344C491.069 165.291 490.738 165.264 490.365 165.264C489.074 165.264 487.965 165.723 487.037 166.64C486.109 167.557 485.368 168.944 484.813 170.8V177.936H488.237V180H479.501ZM490.509 168.848V165.184L490.781 163.152H493.101L492.717 168.848H490.509ZM512.576 163.152L506.449 180H503.329L497.249 163.152H500.097L504.977 177.552L509.793 163.152H512.576ZM519.828 172.528C519.881 173.829 520.132 174.896 520.58 175.728C521.028 176.549 521.62 177.157 522.356 177.552C523.092 177.936 523.892 178.128 524.756 178.128C525.62 178.128 526.399 178 527.092 177.744C527.796 177.488 528.516 177.109 529.252 176.608L530.516 178.384C529.727 179.003 528.825 179.488 527.812 179.84C526.809 180.192 525.78 180.368 524.724 180.368C523.092 180.368 521.7 180 520.548 179.264C519.396 178.528 518.516 177.504 517.908 176.192C517.311 174.869 517.012 173.339 517.012 171.6C517.012 169.893 517.316 168.379 517.924 167.056C518.532 165.733 519.385 164.693 520.484 163.936C521.583 163.179 522.879 162.8 524.372 162.8C525.791 162.8 527.012 163.136 528.036 163.808C529.06 164.469 529.844 165.419 530.388 166.656C530.943 167.883 531.22 169.349 531.22 171.056C531.22 171.344 531.215 171.616 531.204 171.872C531.193 172.117 531.177 172.336 531.156 172.528H519.828ZM524.404 165.008C523.156 165.008 522.111 165.451 521.268 166.336C520.436 167.221 519.961 168.592 519.844 170.448H528.628C528.596 168.645 528.201 167.291 527.444 166.384C526.687 165.467 525.673 165.008 524.404 165.008ZM536.872 172.432V170.096H549.704V172.432H536.872ZM556.251 180V177.936H558.875V165.216H556.251V163.152H560.923L561.419 167.136C562.07 165.749 562.859 164.677 563.787 163.92C564.715 163.163 565.942 162.784 567.467 162.784C567.936 162.784 568.352 162.821 568.715 162.896C569.088 162.96 569.467 163.045 569.851 163.152L569.067 165.552C568.715 165.456 568.395 165.387 568.107 165.344C567.819 165.291 567.488 165.264 567.115 165.264C565.824 165.264 564.715 165.723 563.787 166.64C562.859 167.557 562.118 168.944 561.563 170.8V177.936H564.987V180H556.251ZM567.259 168.848V165.184L567.531 163.152H569.851L569.467 168.848H567.259ZM581.695 162.8C583.284 162.8 584.612 163.163 585.679 163.888C586.756 164.603 587.561 165.616 588.095 166.928C588.639 168.24 588.911 169.787 588.911 171.568C588.911 173.285 588.633 174.805 588.079 176.128C587.524 177.451 586.708 178.491 585.631 179.248C584.564 179.995 583.241 180.368 581.663 180.368C580.084 180.368 578.756 180.005 577.679 179.28C576.601 178.555 575.785 177.536 575.231 176.224C574.687 174.901 574.414 173.36 574.414 171.6C574.414 169.861 574.692 168.331 575.247 167.008C575.801 165.685 576.617 164.656 577.695 163.92C578.783 163.173 580.116 162.8 581.695 162.8ZM581.695 164.992C580.244 164.992 579.145 165.531 578.399 166.608C577.663 167.675 577.295 169.339 577.295 171.6C577.295 173.819 577.657 175.467 578.383 176.544C579.119 177.621 580.212 178.16 581.663 178.16C583.113 178.16 584.201 177.621 584.927 176.544C585.663 175.467 586.031 173.808 586.031 171.568C586.031 169.328 585.668 167.675 584.943 166.608C584.217 165.531 583.135 164.992 581.695 164.992ZM600.882 162.8C602.471 162.8 603.799 163.163 604.866 163.888C605.943 164.603 606.749 165.616 607.282 166.928C607.826 168.24 608.098 169.787 608.098 171.568C608.098 173.285 607.821 174.805 607.266 176.128C606.711 177.451 605.895 178.491 604.818 179.248C603.751 179.995 602.429 180.368 600.85 180.368C599.271 180.368 597.943 180.005 596.866 179.28C595.789 178.555 594.973 177.536 594.418 176.224C593.874 174.901 593.602 173.36 593.602 171.6C593.602 169.861 593.879 168.331 594.434 167.008C594.989 165.685 595.805 164.656 596.882 163.92C597.97 163.173 599.303 162.8 600.882 162.8ZM600.882 164.992C599.431 164.992 598.333 165.531 597.586 166.608C596.85 167.675 596.482 169.339 596.482 171.6C596.482 173.819 596.845 175.467 597.57 176.544C598.306 177.621 599.399 178.16 600.85 178.16C602.301 178.16 603.389 177.621 604.114 176.544C604.85 175.467 605.218 173.808 605.218 171.568C605.218 169.328 604.855 167.675 604.13 166.608C603.405 165.531 602.322 164.992 600.882 164.992ZM627.03 179.152C626.454 179.536 625.755 179.835 624.934 180.048C624.112 180.261 623.307 180.368 622.518 180.368C620.704 180.368 619.307 179.893 618.326 178.944C617.344 177.995 616.854 176.773 616.854 175.28V165.232H612.982V163.152H616.854V159.328L619.542 159.008V163.152H625.366L625.046 165.232H619.542V175.248C619.542 176.187 619.787 176.901 620.278 177.392C620.779 177.883 621.606 178.128 622.758 178.128C623.387 178.128 623.968 178.053 624.502 177.904C625.035 177.755 625.531 177.563 625.99 177.328L627.03 179.152ZM652.669 183.296L650.493 182.336L664.189 154.096L666.333 155.152L652.669 183.296ZM62.944 220.144C64.2347 220.144 65.2533 219.904 66 219.424C66.7573 218.933 67.136 218.283 67.136 217.472C67.136 216.96 67.04 216.517 66.848 216.144C66.6667 215.771 66.288 215.435 65.712 215.136C65.136 214.837 64.2507 214.539 63.056 214.24C61.8933 213.952 60.88 213.621 60.016 213.248C59.1627 212.864 58.496 212.368 58.016 211.76C57.5467 211.152 57.312 210.363 57.312 209.392C57.312 208.443 57.5787 207.627 58.112 206.944C58.656 206.251 59.408 205.723 60.368 205.36C61.328 204.987 62.4427 204.8 63.712 204.8C65.0667 204.8 66.2453 204.981 67.248 205.344C68.2613 205.696 69.12 206.133 69.824 206.656L68.64 208.48C68 208.043 67.296 207.685 66.528 207.408C65.76 207.12 64.832 206.976 63.744 206.976C62.4213 206.976 61.4827 207.184 60.928 207.6C60.3733 208.005 60.096 208.533 60.096 209.184C60.096 209.675 60.2293 210.085 60.496 210.416C60.7733 210.736 61.2373 211.029 61.888 211.296C62.5387 211.552 63.4347 211.835 64.576 212.144C65.6747 212.432 66.6293 212.779 67.44 213.184C68.2613 213.589 68.9013 214.123 69.36 214.784C69.8187 215.445 70.048 216.299 70.048 217.344C70.048 218.539 69.7067 219.509 69.024 220.256C68.3413 220.992 67.456 221.531 66.368 221.872C65.2907 222.203 64.1493 222.368 62.944 222.368C61.4187 222.368 60.1173 222.149 59.04 221.712C57.9733 221.264 57.0773 220.725 56.352 220.096L57.888 218.32C58.5493 218.864 59.3067 219.307 60.16 219.648C61.024 219.979 61.952 220.144 62.944 220.144ZM79.0915 205.152V217.088C79.0915 218.197 79.3208 218.997 79.7795 219.488C80.2382 219.979 80.9528 220.224 81.9235 220.224C82.8515 220.224 83.7262 219.963 84.5475 219.44C85.3795 218.907 86.0248 218.277 86.4835 217.552V205.152H89.1715V222H86.8835L86.6595 219.728C85.9982 220.581 85.1822 221.237 84.2115 221.696C83.2408 222.144 82.2595 222.368 81.2675 222.368C79.6355 222.368 78.4142 221.936 77.6035 221.072C76.8035 220.197 76.4035 218.976 76.4035 217.408V205.152H79.0915ZM105.671 198.032L108.359 198.368V222H106.007L105.751 219.776C105.122 220.672 104.396 221.328 103.575 221.744C102.764 222.16 101.895 222.368 100.967 222.368C99.5057 222.368 98.3003 222 97.351 221.264C96.4017 220.528 95.6977 219.504 95.239 218.192C94.7803 216.869 94.551 215.339 94.551 213.6C94.551 211.915 94.8123 210.411 95.335 209.088C95.8577 207.755 96.6097 206.709 97.591 205.952C98.583 205.184 99.7723 204.8 101.159 204.8C102.13 204.8 102.983 204.971 103.719 205.312C104.455 205.643 105.106 206.133 105.671 206.784V198.032ZM101.863 206.96C100.455 206.96 99.3723 207.509 98.615 208.608C97.8577 209.707 97.479 211.371 97.479 213.6C97.479 215.051 97.6337 216.267 97.943 217.248C98.2523 218.229 98.7057 218.965 99.303 219.456C99.911 219.947 100.652 220.192 101.527 220.192C102.487 220.192 103.303 219.92 103.975 219.376C104.658 218.832 105.223 218.219 105.671 217.536V209.12C105.212 208.437 104.658 207.909 104.007 207.536C103.356 207.152 102.642 206.96 101.863 206.96ZM121.195 204.8C122.784 204.8 124.112 205.163 125.179 205.888C126.256 206.603 127.061 207.616 127.595 208.928C128.139 210.24 128.411 211.787 128.411 213.568C128.411 215.285 128.133 216.805 127.579 218.128C127.024 219.451 126.208 220.491 125.131 221.248C124.064 221.995 122.741 222.368 121.163 222.368C119.584 222.368 118.256 222.005 117.179 221.28C116.101 220.555 115.285 219.536 114.731 218.224C114.187 216.901 113.914 215.36 113.914 213.6C113.914 211.861 114.192 210.331 114.747 209.008C115.301 207.685 116.117 206.656 117.195 205.92C118.283 205.173 119.616 204.8 121.195 204.8ZM121.195 206.992C119.744 206.992 118.645 207.531 117.899 208.608C117.163 209.675 116.795 211.339 116.795 213.6C116.795 215.819 117.157 217.467 117.883 218.544C118.619 219.621 119.712 220.16 121.163 220.16C122.613 220.16 123.701 219.621 124.427 218.544C125.163 217.467 125.531 215.808 125.531 213.568C125.531 211.328 125.168 209.675 124.443 208.608C123.717 207.531 122.635 206.992 121.195 206.992ZM153.314 222V219.936H155.938V207.216H153.314V205.152H157.986L158.482 209.136C159.132 207.749 159.922 206.677 160.85 205.92C161.778 205.163 163.004 204.784 164.53 204.784C164.999 204.784 165.415 204.821 165.778 204.896C166.151 204.96 166.53 205.045 166.914 205.152L166.13 207.552C165.778 207.456 165.458 207.387 165.17 207.344C164.882 207.291 164.551 207.264 164.178 207.264C162.887 207.264 161.778 207.723 160.85 208.64C159.922 209.557 159.18 210.944 158.626 212.8V219.936H162.05V222H153.314ZM164.322 210.848V207.184L164.594 205.152H166.914L166.53 210.848H164.322ZM183.445 204.8C183.989 204.8 184.506 204.917 184.997 205.152C185.498 205.387 185.909 205.84 186.229 206.512C186.549 207.184 186.709 208.165 186.709 209.456V222H184.213V209.888C184.213 208.832 184.149 208.069 184.021 207.6C183.893 207.131 183.525 206.896 182.917 206.896C182.416 206.896 181.914 207.056 181.413 207.376C180.922 207.685 180.442 208.197 179.973 208.912V222H177.461V209.888C177.461 208.832 177.397 208.069 177.269 207.6C177.141 207.131 176.773 206.896 176.165 206.896C175.642 206.896 175.136 207.056 174.645 207.376C174.165 207.685 173.69 208.197 173.221 208.912V222H170.741V205.152H172.853L173.013 207.104C173.472 206.453 173.984 205.909 174.549 205.472C175.125 205.024 175.834 204.8 176.677 204.8C177.317 204.8 177.92 204.955 178.485 205.264C179.05 205.563 179.466 206.149 179.733 207.024C180.192 206.363 180.709 205.829 181.285 205.424C181.861 205.008 182.581 204.8 183.445 204.8ZM210.684 214.432V212.096H223.516V214.432H210.684ZM239.856 198.032C240.762 198.032 241.584 198.112 242.32 198.272C243.056 198.432 243.754 198.656 244.416 198.944L243.552 200.944C243.008 200.709 242.432 200.533 241.824 200.416C241.216 200.299 240.586 200.24 239.936 200.24C238.762 200.24 237.877 200.469 237.28 200.928C236.693 201.387 236.4 202.091 236.4 203.04V206.464H242.112L241.824 208.576H236.4V222H233.712V208.576H229.696V206.464H233.712V203.104C233.712 202.059 233.978 201.157 234.512 200.4C235.056 199.643 235.792 199.061 236.72 198.656C237.648 198.24 238.693 198.032 239.856 198.032ZM249.251 222V219.936H251.875V207.216H249.251V205.152H253.923L254.419 209.136C255.07 207.749 255.859 206.677 256.787 205.92C257.715 205.163 258.942 204.784 260.467 204.784C260.936 204.784 261.352 204.821 261.715 204.896C262.088 204.96 262.467 205.045 262.851 205.152L262.067 207.552C261.715 207.456 261.395 207.387 261.107 207.344C260.819 207.291 260.488 207.264 260.115 207.264C258.824 207.264 257.715 207.723 256.787 208.64C255.859 209.557 255.118 210.944 254.563 212.8V219.936H257.987V222H249.251ZM260.259 210.848V207.184L260.531 205.152H262.851L262.467 210.848H260.259ZM290.653 225.296L304.318 197.152L302.173 196.096L288.477 224.336L290.653 225.296ZM309.79 202.72H312.51L312.302 209.2L318.382 207.04L319.198 209.568L313.006 211.392L316.958 216.512L314.814 218.08L311.15 212.736L307.486 218.08L305.342 216.512L309.294 211.392L303.101 209.568L303.918 207.04L309.998 209.2L309.79 202.72Z" fill="#F38BA8"/>
<path d="M68.672 306.408L67.728 313.496H70.32V315.576H67.424L66.752 321H64.448L65.168 315.576H60.512L59.808 321H57.504L58.224 315.576H55.696V313.496H58.496L59.472 306.408H56.88V304.312H59.744L60.448 298.968H62.752L61.984 304.312H66.688L67.392 298.968H69.696L68.944 304.312H71.504V306.408H68.672ZM60.784 313.496H65.44L66.416 306.408H61.728L60.784 313.496ZM109.543 314.904C109.543 316.163 109.228 317.283 108.599 318.264C107.97 319.235 107.058 319.997 105.863 320.552C104.668 321.096 103.212 321.368 101.495 321.368C99.8843 321.368 98.423 321.123 97.111 320.632C95.8097 320.141 94.695 319.448 93.767 318.552L95.415 316.696C96.183 317.411 97.063 317.981 98.055 318.408C99.047 318.824 100.21 319.032 101.543 319.032C102.439 319.032 103.276 318.888 104.055 318.6C104.834 318.301 105.463 317.853 105.943 317.256C106.423 316.648 106.663 315.88 106.663 314.952C106.663 314.237 106.524 313.629 106.247 313.128C105.97 312.627 105.479 312.184 104.775 311.8C104.071 311.405 103.09 311.021 101.831 310.648C100.38 310.221 99.1217 309.741 98.055 309.208C96.999 308.664 96.1777 307.997 95.591 307.208C95.015 306.419 94.727 305.443 94.727 304.28C94.727 303.181 95.031 302.205 95.639 301.352C96.247 300.499 97.0843 299.832 98.151 299.352C99.2283 298.861 100.466 298.616 101.863 298.616C103.388 298.616 104.711 298.835 105.831 299.272C106.962 299.699 107.986 300.317 108.903 301.128L107.271 302.936C106.482 302.232 105.634 301.725 104.727 301.416C103.82 301.096 102.898 300.936 101.959 300.936C101.159 300.936 100.423 301.059 99.751 301.304C99.0897 301.539 98.5563 301.896 98.151 302.376C97.7563 302.845 97.559 303.448 97.559 304.184C97.559 304.813 97.7297 305.357 98.071 305.816C98.4123 306.275 98.9883 306.696 99.799 307.08C100.61 307.453 101.714 307.848 103.111 308.264C104.252 308.595 105.308 309.011 106.279 309.512C107.26 310.003 108.05 310.675 108.647 311.528C109.244 312.371 109.543 313.496 109.543 314.904ZM125.435 315.384H116.715L114.955 321H112.219L119.387 298.968H122.939L130.107 321H127.195L125.435 315.384ZM117.435 313.08H124.715L121.099 301.304L117.435 313.08ZM137.934 301.24V308.952H146.574V311.192H137.934V321H135.182V298.968H148.158L147.822 301.24H137.934ZM156.738 301.24V308.664H164.898V310.952H156.738V318.776H166.753V321H153.954V298.968H166.465L166.146 301.24H156.738ZM178.725 315.736C179.461 315.736 180.074 315.987 180.565 316.488C181.066 316.989 181.317 317.592 181.317 318.296C181.317 318.68 181.269 319.069 181.173 319.464C181.088 319.859 180.928 320.307 180.693 320.808L178.101 326.744H175.669L177.205 320.424C176.885 320.189 176.629 319.885 176.437 319.512C176.256 319.128 176.165 318.723 176.165 318.296C176.165 317.581 176.41 316.979 176.901 316.488C177.392 315.987 178 315.736 178.725 315.736ZM216.412 319.512C217.841 319.512 218.961 319.24 219.772 318.696C220.593 318.141 221.004 317.416 221.004 316.52C221.004 315.965 220.913 315.485 220.732 315.08C220.561 314.664 220.183 314.296 219.596 313.976C219.02 313.645 218.129 313.336 216.924 313.048C215.719 312.749 214.673 312.419 213.788 312.056C212.913 311.693 212.236 311.219 211.756 310.632C211.276 310.045 211.036 309.267 211.036 308.296C211.036 307.368 211.297 306.579 211.82 305.928C212.353 305.267 213.079 304.765 213.996 304.424C214.924 304.072 215.969 303.896 217.132 303.896C218.444 303.896 219.585 304.072 220.556 304.424C221.537 304.776 222.359 305.203 223.02 305.704L222.092 307.176C221.473 306.739 220.785 306.376 220.028 306.088C219.271 305.8 218.311 305.656 217.148 305.656C215.665 305.656 214.625 305.891 214.028 306.36C213.431 306.829 213.132 307.421 213.132 308.136C213.132 308.691 213.276 309.149 213.564 309.512C213.863 309.864 214.348 310.179 215.02 310.456C215.692 310.723 216.599 311.011 217.74 311.32C218.839 311.608 219.799 311.955 220.62 312.36C221.441 312.765 222.081 313.293 222.54 313.944C222.999 314.595 223.228 315.437 223.228 316.472C223.228 317.656 222.892 318.605 222.22 319.32C221.559 320.024 220.705 320.536 219.66 320.856C218.615 321.165 217.527 321.32 216.396 321.32C214.913 321.32 213.66 321.101 212.636 320.664C211.623 320.227 210.78 319.715 210.108 319.128L211.34 317.672C212.001 318.227 212.764 318.675 213.628 319.016C214.492 319.347 215.42 319.512 216.412 319.512ZM243.008 320.2C242.453 320.563 241.781 320.84 240.992 321.032C240.202 321.224 239.472 321.32 238.8 321.32C237.114 321.32 235.792 320.872 234.832 319.976C233.882 319.08 233.408 317.955 233.408 316.6V305.864H229.44V304.2H233.408V300.328L235.392 300.088V304.2H241.312L241.04 305.864H235.392V316.552C235.392 317.523 235.653 318.275 236.176 318.808C236.709 319.331 237.6 319.592 238.848 319.592C239.488 319.592 240.08 319.517 240.624 319.368C241.168 319.219 241.674 319.021 242.144 318.776L243.008 320.2ZM257.363 304.2V319.272H262.243V321H250.067V319.272H255.379V305.928H250.227V304.2H257.363ZM255.491 296.6C256.003 296.6 256.408 296.755 256.707 297.064C257.006 297.373 257.155 297.747 257.155 298.184C257.155 298.653 257.006 299.048 256.707 299.368C256.408 299.677 256.003 299.832 255.491 299.832C255.011 299.832 254.622 299.677 254.323 299.368C254.024 299.048 253.875 298.653 253.875 298.184C253.875 297.747 254.024 297.373 254.323 297.064C254.622 296.755 255.011 296.6 255.491 296.6ZM274.439 297.4V317.192C274.439 318.067 274.716 318.685 275.271 319.048C275.836 319.411 276.545 319.592 277.399 319.592C277.932 319.592 278.433 319.539 278.903 319.432C279.383 319.325 279.868 319.176 280.359 318.984L280.935 320.52C280.519 320.723 279.991 320.904 279.351 321.064C278.711 321.235 277.996 321.32 277.207 321.32C275.884 321.32 274.759 320.963 273.831 320.248C272.913 319.523 272.455 318.504 272.455 317.192V299.128H267.239V297.4H274.439ZM293.626 297.4V317.192C293.626 318.067 293.903 318.685 294.458 319.048C295.023 319.411 295.733 319.592 296.586 319.592C297.119 319.592 297.621 319.539 298.09 319.432C298.57 319.325 299.055 319.176 299.546 318.984L300.122 320.52C299.706 320.723 299.178 320.904 298.538 321.064C297.898 321.235 297.183 321.32 296.394 321.32C295.071 321.32 293.946 320.963 293.018 320.248C292.101 319.523 291.642 318.504 291.642 317.192V299.128H286.426V297.4H293.626ZM338.033 321H334.753L332.353 308.36L329.745 321H326.561L323.313 304.2H325.505L327.969 319.784L330.929 306.344H333.793L336.609 319.784L339.057 304.2H341.137L338.033 321ZM351.461 303.896C352.997 303.896 354.277 304.253 355.301 304.968C356.325 305.683 357.087 306.691 357.589 307.992C358.101 309.293 358.357 310.829 358.357 312.6C358.357 314.264 358.095 315.752 357.573 317.064C357.05 318.376 356.271 319.416 355.237 320.184C354.213 320.941 352.938 321.32 351.413 321.32C349.877 321.32 348.591 320.957 347.557 320.232C346.533 319.496 345.759 318.477 345.237 317.176C344.725 315.864 344.469 314.349 344.469 312.632C344.469 310.915 344.73 309.4 345.253 308.088C345.775 306.776 346.554 305.752 347.589 305.016C348.634 304.269 349.925 303.896 351.461 303.896ZM351.461 305.64C349.882 305.64 348.682 306.211 347.861 307.352C347.05 308.493 346.645 310.253 346.645 312.632C346.645 314.957 347.045 316.696 347.845 317.848C348.645 318.989 349.834 319.56 351.413 319.56C352.991 319.56 354.181 318.989 354.981 317.848C355.781 316.696 356.181 314.947 356.181 312.6C356.181 310.243 355.781 308.493 354.981 307.352C354.191 306.211 353.018 305.64 351.461 305.64ZM364.504 321V304.2H366.168L366.328 306.648C366.989 305.773 367.859 305.096 368.936 304.616C370.024 304.136 371.037 303.896 371.976 303.896C373.693 303.896 374.915 304.333 375.64 305.208C376.376 306.083 376.744 307.293 376.744 308.84V321H374.76V310.968C374.76 309.688 374.691 308.648 374.552 307.848C374.413 307.048 374.115 306.467 373.656 306.104C373.197 305.731 372.477 305.544 371.496 305.544C370.749 305.544 370.045 305.709 369.384 306.04C368.733 306.36 368.157 306.76 367.656 307.24C367.165 307.709 366.776 308.168 366.488 308.616V321H364.504ZM387.788 297.928C387.788 297.32 388.017 296.808 388.476 296.392C388.934 295.965 389.457 295.752 390.044 295.752C390.652 295.752 391.18 295.965 391.628 296.392C392.076 296.808 392.3 297.32 392.3 297.928C392.3 298.184 392.273 298.429 392.22 298.664C392.166 298.888 392.038 299.224 391.836 299.672L389.1 305.416H387.244L388.524 299.48C388.3 299.331 388.118 299.112 387.98 298.824C387.852 298.536 387.788 298.237 387.788 297.928ZM415.695 320.2C415.14 320.563 414.468 320.84 413.679 321.032C412.89 321.224 412.159 321.32 411.487 321.32C409.802 321.32 408.479 320.872 407.519 319.976C406.57 319.08 406.095 317.955 406.095 316.6V305.864H402.127V304.2H406.095V300.328L408.079 300.088V304.2H413.999L413.727 305.864H408.079V316.552C408.079 317.523 408.34 318.275 408.863 318.808C409.396 319.331 410.287 319.592 411.535 319.592C412.175 319.592 412.767 319.517 413.311 319.368C413.855 319.219 414.362 319.021 414.831 318.776L415.695 320.2ZM441.414 321V319.336H444.15V305.88H441.414V304.2H445.67L446.038 308.232C446.699 306.867 447.489 305.8 448.406 305.032C449.334 304.253 450.582 303.864 452.15 303.864C452.587 303.864 452.977 303.896 453.318 303.96C453.67 304.024 454.038 304.104 454.422 304.2L453.862 306.072C453.489 305.965 453.158 305.891 452.87 305.848C452.593 305.795 452.273 305.768 451.91 305.768C450.555 305.768 449.403 306.232 448.454 307.16C447.505 308.077 446.731 309.533 446.134 311.528V319.336H449.59V321H441.414ZM452.278 309.48V306.2L452.406 304.2H454.422L454.198 309.48H452.278ZM461.882 313.4C461.914 314.808 462.164 315.965 462.634 316.872C463.114 317.768 463.743 318.429 464.522 318.856C465.3 319.283 466.148 319.496 467.066 319.496C467.951 319.496 468.735 319.368 469.418 319.112C470.111 318.856 470.836 318.467 471.594 317.944L472.634 319.432C471.855 320.029 470.975 320.493 469.994 320.824C469.023 321.155 468.074 321.32 467.146 321.32C465.599 321.32 464.271 320.957 463.162 320.232C462.063 319.507 461.22 318.493 460.634 317.192C460.047 315.88 459.754 314.355 459.754 312.616C459.754 310.909 460.052 309.4 460.65 308.088C461.247 306.776 462.074 305.752 463.13 305.016C464.196 304.269 465.434 303.896 466.842 303.896C468.207 303.896 469.375 304.227 470.346 304.888C471.316 305.549 472.058 306.488 472.57 307.704C473.092 308.909 473.354 310.349 473.354 312.024C473.354 312.312 473.348 312.573 473.338 312.808C473.327 313.032 473.316 313.229 473.306 313.4H461.882ZM466.89 305.752C465.535 305.752 464.394 306.232 463.466 307.192C462.548 308.152 462.031 309.624 461.914 311.608H471.466C471.423 309.635 470.98 308.168 470.138 307.208C469.295 306.237 468.212 305.752 466.89 305.752ZM486.829 319.496C487.725 319.496 488.552 319.357 489.309 319.08C490.077 318.803 490.77 318.445 491.389 318.008L492.429 319.352C491.693 319.971 490.813 320.456 489.789 320.808C488.765 321.149 487.805 321.32 486.909 321.32C485.277 321.32 483.89 320.968 482.749 320.264C481.618 319.549 480.754 318.541 480.157 317.24C479.57 315.939 479.277 314.413 479.277 312.664C479.277 311 479.57 309.507 480.157 308.184C480.754 306.861 481.618 305.816 482.749 305.048C483.89 304.28 485.282 303.896 486.925 303.896C487.938 303.896 488.904 304.056 489.821 304.376C490.749 304.696 491.602 305.171 492.381 305.8L491.325 307.224C490.568 306.701 489.816 306.312 489.069 306.056C488.333 305.789 487.586 305.656 486.829 305.656C485.282 305.656 484.002 306.243 482.989 307.416C481.986 308.589 481.485 310.339 481.485 312.664C481.485 314.232 481.714 315.523 482.173 316.536C482.632 317.539 483.261 318.285 484.061 318.776C484.872 319.256 485.794 319.496 486.829 319.496ZM504.961 303.896C506.497 303.896 507.777 304.253 508.801 304.968C509.825 305.683 510.587 306.691 511.089 307.992C511.601 309.293 511.857 310.829 511.857 312.6C511.857 314.264 511.595 315.752 511.073 317.064C510.55 318.376 509.771 319.416 508.737 320.184C507.713 320.941 506.438 321.32 504.913 321.32C503.377 321.32 502.091 320.957 501.057 320.232C500.033 319.496 499.259 318.477 498.737 317.176C498.225 315.864 497.969 314.349 497.969 312.632C497.969 310.915 498.23 309.4 498.753 308.088C499.275 306.776 500.054 305.752 501.089 305.016C502.134 304.269 503.425 303.896 504.961 303.896ZM504.961 305.64C503.382 305.64 502.182 306.211 501.361 307.352C500.55 308.493 500.145 310.253 500.145 312.632C500.145 314.957 500.545 316.696 501.345 317.848C502.145 318.989 503.334 319.56 504.913 319.56C506.491 319.56 507.681 318.989 508.481 317.848C509.281 316.696 509.681 314.947 509.681 312.6C509.681 310.243 509.281 308.493 508.481 307.352C507.691 306.211 506.518 305.64 504.961 305.64ZM528.676 303.896C529.135 303.896 529.609 304.003 530.1 304.216C530.591 304.419 531.007 304.845 531.348 305.496C531.689 306.147 531.86 307.139 531.86 308.472V321H529.908V308.856C529.908 307.661 529.839 306.797 529.7 306.264C529.572 305.731 529.167 305.464 528.484 305.464C527.908 305.464 527.337 305.645 526.772 306.008C526.217 306.36 525.689 306.941 525.188 307.752V321H522.98V308.856C522.98 307.661 522.911 306.797 522.772 306.264C522.644 305.731 522.239 305.464 521.556 305.464C520.959 305.464 520.383 305.645 519.828 306.008C519.284 306.36 518.761 306.941 518.26 307.752V321H516.34V304.2H517.972L518.084 306.232C518.521 305.603 519.028 305.059 519.604 304.6C520.191 304.131 520.916 303.896 521.78 303.896C522.42 303.896 523.039 304.051 523.636 304.36C524.244 304.659 524.692 305.267 524.98 306.184C525.417 305.501 525.919 304.952 526.484 304.536C527.049 304.109 527.78 303.896 528.676 303.896ZM547.864 303.896C548.322 303.896 548.797 304.003 549.288 304.216C549.778 304.419 550.194 304.845 550.536 305.496C550.877 306.147 551.048 307.139 551.048 308.472V321H549.096V308.856C549.096 307.661 549.026 306.797 548.888 306.264C548.76 305.731 548.354 305.464 547.672 305.464C547.096 305.464 546.525 305.645 545.96 306.008C545.405 306.36 544.877 306.941 544.376 307.752V321H542.168V308.856C542.168 307.661 542.098 306.797 541.96 306.264C541.832 305.731 541.426 305.464 540.744 305.464C540.146 305.464 539.57 305.645 539.016 306.008C538.472 306.36 537.949 306.941 537.448 307.752V321H535.528V304.2H537.16L537.272 306.232C537.709 305.603 538.216 305.059 538.792 304.6C539.378 304.131 540.104 303.896 540.968 303.896C541.608 303.896 542.226 304.051 542.824 304.36C543.432 304.659 543.88 305.267 544.168 306.184C544.605 305.501 545.106 304.952 545.672 304.536C546.237 304.109 546.968 303.896 547.864 303.896ZM557.819 313.4C557.851 314.808 558.102 315.965 558.571 316.872C559.051 317.768 559.68 318.429 560.459 318.856C561.238 319.283 562.086 319.496 563.003 319.496C563.888 319.496 564.672 319.368 565.355 319.112C566.048 318.856 566.774 318.467 567.531 317.944L568.571 319.432C567.792 320.029 566.912 320.493 565.931 320.824C564.96 321.155 564.011 321.32 563.083 321.32C561.536 321.32 560.208 320.957 559.099 320.232C558 319.507 557.158 318.493 556.571 317.192C555.984 315.88 555.691 314.355 555.691 312.616C555.691 310.909 555.99 309.4 556.587 308.088C557.184 306.776 558.011 305.752 559.067 305.016C560.134 304.269 561.371 303.896 562.779 303.896C564.144 303.896 565.312 304.227 566.283 304.888C567.254 305.549 567.995 306.488 568.507 307.704C569.03 308.909 569.291 310.349 569.291 312.024C569.291 312.312 569.286 312.573 569.275 312.808C569.264 313.032 569.254 313.229 569.243 313.4H557.819ZM562.827 305.752C561.472 305.752 560.331 306.232 559.403 307.192C558.486 308.152 557.968 309.624 557.851 311.608H567.403C567.36 309.635 566.918 308.168 566.075 307.208C565.232 306.237 564.15 305.752 562.827 305.752ZM575.567 321V304.2H577.231L577.391 306.648C578.052 305.773 578.921 305.096 579.999 304.616C581.087 304.136 582.1 303.896 583.039 303.896C584.756 303.896 585.977 304.333 586.703 305.208C587.439 306.083 587.807 307.293 587.807 308.84V321H585.823V310.968C585.823 309.688 585.753 308.648 585.615 307.848C585.476 307.048 585.177 306.467 584.719 306.104C584.26 305.731 583.54 305.544 582.559 305.544C581.812 305.544 581.108 305.709 580.447 306.04C579.796 306.36 579.22 306.76 578.719 307.24C578.228 307.709 577.839 308.168 577.551 308.616V321H575.567ZM604.962 297.128L606.946 297.4V321H605.218L604.962 318.68C604.29 319.64 603.538 320.323 602.706 320.728C601.885 321.123 601.037 321.32 600.162 321.32C598.679 321.32 597.458 320.957 596.498 320.232C595.549 319.496 594.845 318.477 594.386 317.176C593.927 315.864 593.698 314.355 593.698 312.648C593.698 310.973 593.954 309.48 594.466 308.168C594.989 306.845 595.735 305.805 596.706 305.048C597.687 304.28 598.871 303.896 600.258 303.896C601.282 303.896 602.178 304.077 602.946 304.44C603.714 304.792 604.386 305.315 604.962 306.008V297.128ZM600.754 305.608C599.197 305.608 598.002 306.2 597.17 307.384C596.349 308.557 595.938 310.307 595.938 312.632C595.938 314.104 596.103 315.363 596.434 316.408C596.775 317.443 597.277 318.232 597.938 318.776C598.599 319.32 599.426 319.592 600.418 319.592C601.485 319.592 602.386 319.293 603.122 318.696C603.869 318.099 604.482 317.443 604.962 316.728V307.992C604.471 307.235 603.858 306.648 603.122 306.232C602.397 305.816 601.607 305.608 600.754 305.608ZM645.945 320.2C645.39 320.563 644.718 320.84 643.929 321.032C643.14 321.224 642.409 321.32 641.737 321.32C640.052 321.32 638.729 320.872 637.769 319.976C636.82 319.08 636.345 317.955 636.345 316.6V305.864H632.377V304.2H636.345V300.328L638.329 300.088V304.2H644.249L643.977 305.864H638.329V316.552C638.329 317.523 638.59 318.275 639.113 318.808C639.646 319.331 640.537 319.592 641.785 319.592C642.425 319.592 643.017 319.517 643.561 319.368C644.105 319.219 644.612 319.021 645.081 318.776L645.945 320.2ZM654.301 297.208V306.68C654.951 305.763 655.778 305.069 656.781 304.6C657.783 304.131 658.786 303.896 659.789 303.896C661.474 303.896 662.69 304.333 663.437 305.208C664.183 306.083 664.557 307.293 664.557 308.84V321H662.573V308.488C662.573 307.485 662.301 306.744 661.757 306.264C661.213 305.784 660.386 305.544 659.277 305.544C658.551 305.544 657.863 305.704 657.213 306.024C656.562 306.344 655.986 306.739 655.485 307.208C654.983 307.667 654.589 308.12 654.301 308.568V321H652.317V297.448L654.301 297.208ZM677.648 303.896C679.184 303.896 680.464 304.253 681.488 304.968C682.512 305.683 683.275 306.691 683.776 307.992C684.288 309.293 684.544 310.829 684.544 312.6C684.544 314.264 684.283 315.752 683.76 317.064C683.237 318.376 682.459 319.416 681.424 320.184C680.4 320.941 679.125 321.32 677.6 321.32C676.064 321.32 674.779 320.957 673.744 320.232C672.72 319.496 671.947 318.477 671.424 317.176C670.912 315.864 670.656 314.349 670.656 312.632C670.656 310.915 670.917 309.4 671.44 308.088C671.963 306.776 672.741 305.752 673.776 305.016C674.821 304.269 676.112 303.896 677.648 303.896ZM677.648 305.64C676.069 305.64 674.869 306.211 674.048 307.352C673.237 308.493 672.832 310.253 672.832 312.632C672.832 314.957 673.232 316.696 674.032 317.848C674.832 318.989 676.021 319.56 677.6 319.56C679.179 319.56 680.368 318.989 681.168 317.848C681.968 316.696 682.368 314.947 682.368 312.6C682.368 310.243 681.968 308.493 681.168 307.352C680.379 306.211 679.205 305.64 677.648 305.64Z" fill="#A6ADC8" fill-opacity="0.6588"/>
<path d="M62.944 361.144C64.2347 361.144 65.2533 360.904 66 360.424C66.7573 359.933 67.136 359.283 67.136 358.472C67.136 357.96 67.04 357.517 66.848 357.144C66.6667 356.771 66.288 356.435 65.712 356.136C65.136 355.837 64.2507 355.539 63.056 355.24C61.8933 354.952 60.88 354.621 60.016 354.248C59.1627 353.864 58.496 353.368 58.016 352.76C57.5467 352.152 57.312 351.363 57.312 350.392C57.312 349.443 57.5787 348.627 58.112 347.944C58.656 347.251 59.408 346.723 60.368 346.36C61.328 345.987 62.4427 345.8 63.712 345.8C65.0667 345.8 66.2453 345.981 67.248 346.344C68.2613 346.696 69.12 347.133 69.824 347.656L68.64 349.48C68 349.043 67.296 348.685 66.528 348.408C65.76 348.12 64.832 347.976 63.744 347.976C62.4213 347.976 61.4827 348.184 60.928 348.6C60.3733 349.005 60.096 349.533 60.096 350.184C60.096 350.675 60.2293 351.085 60.496 351.416C60.7733 351.736 61.2373 352.029 61.888 352.296C62.5387 352.552 63.4347 352.835 64.576 353.144C65.6747 353.432 66.6293 353.779 67.44 354.184C68.2613 354.589 68.9013 355.123 69.36 355.784C69.8187 356.445 70.048 357.299 70.048 358.344C70.048 359.539 69.7067 360.509 69.024 361.256C68.3413 361.992 67.456 362.531 66.368 362.872C65.2907 363.203 64.1493 363.368 62.944 363.368C61.4187 363.368 60.1173 363.149 59.04 362.712C57.9733 362.264 57.0773 361.725 56.352 361.096L57.888 359.32C58.5493 359.864 59.3067 360.307 60.16 360.648C61.024 360.979 61.952 361.144 62.944 361.144ZM79.0915 346.152V358.088C79.0915 359.197 79.3208 359.997 79.7795 360.488C80.2382 360.979 80.9528 361.224 81.9235 361.224C82.8515 361.224 83.7262 360.963 84.5475 360.44C85.3795 359.907 86.0248 359.277 86.4835 358.552V346.152H89.1715V363H86.8835L86.6595 360.728C85.9982 361.581 85.1822 362.237 84.2115 362.696C83.2408 363.144 82.2595 363.368 81.2675 363.368C79.6355 363.368 78.4142 362.936 77.6035 362.072C76.8035 361.197 76.4035 359.976 76.4035 358.408V346.152H79.0915ZM105.671 339.032L108.359 339.368V363H106.007L105.751 360.776C105.122 361.672 104.396 362.328 103.575 362.744C102.764 363.16 101.895 363.368 100.967 363.368C99.5057 363.368 98.3003 363 97.351 362.264C96.4017 361.528 95.6977 360.504 95.239 359.192C94.7803 357.869 94.551 356.339 94.551 354.6C94.551 352.915 94.8123 351.411 95.335 350.088C95.8577 348.755 96.6097 347.709 97.591 346.952C98.583 346.184 99.7723 345.8 101.159 345.8C102.13 345.8 102.983 345.971 103.719 346.312C104.455 346.643 105.106 347.133 105.671 347.784V339.032ZM101.863 347.96C100.455 347.96 99.3723 348.509 98.615 349.608C97.8577 350.707 97.479 352.371 97.479 354.6C97.479 356.051 97.6337 357.267 97.943 358.248C98.2523 359.229 98.7057 359.965 99.303 360.456C99.911 360.947 100.652 361.192 101.527 361.192C102.487 361.192 103.303 360.92 103.975 360.376C104.658 359.832 105.223 359.219 105.671 358.536V350.12C105.212 349.437 104.658 348.909 104.007 348.536C103.356 348.152 102.642 347.96 101.863 347.96ZM121.195 345.8C122.784 345.8 124.112 346.163 125.179 346.888C126.256 347.603 127.061 348.616 127.595 349.928C128.139 351.24 128.411 352.787 128.411 354.568C128.411 356.285 128.133 357.805 127.579 359.128C127.024 360.451 126.208 361.491 125.131 362.248C124.064 362.995 122.741 363.368 121.163 363.368C119.584 363.368 118.256 363.005 117.179 362.28C116.101 361.555 115.285 360.536 114.731 359.224C114.187 357.901 113.914 356.36 113.914 354.6C113.914 352.861 114.192 351.331 114.747 350.008C115.301 348.685 116.117 347.656 117.195 346.92C118.283 346.173 119.616 345.8 121.195 345.8ZM121.195 347.992C119.744 347.992 118.645 348.531 117.899 349.608C117.163 350.675 116.795 352.339 116.795 354.6C116.795 356.819 117.157 358.467 117.883 359.544C118.619 360.621 119.712 361.16 121.163 361.16C122.613 361.16 123.701 360.621 124.427 359.544C125.163 358.467 125.531 356.808 125.531 354.568C125.531 352.328 125.168 350.675 124.443 349.608C123.717 348.531 122.635 347.992 121.195 347.992ZM163.234 339.032L165.922 339.368V363H163.57L163.314 360.776C162.684 361.672 161.959 362.328 161.138 362.744C160.327 363.16 159.458 363.368 158.53 363.368C157.068 363.368 155.863 363 154.914 362.264C153.964 361.528 153.26 360.504 152.802 359.192C152.343 357.869 152.114 356.339 152.114 354.6C152.114 352.915 152.375 351.411 152.898 350.088C153.42 348.755 154.172 347.709 155.154 346.952C156.146 346.184 157.335 345.8 158.722 345.8C159.692 345.8 160.546 345.971 161.282 346.312C162.018 346.643 162.668 347.133 163.234 347.784V339.032ZM159.426 347.96C158.018 347.96 156.935 348.509 156.178 349.608C155.42 350.707 155.042 352.371 155.042 354.6C155.042 356.051 155.196 357.267 155.506 358.248C155.815 359.229 156.268 359.965 156.866 360.456C157.474 360.947 158.215 361.192 159.09 361.192C160.05 361.192 160.866 360.92 161.538 360.376C162.22 359.832 162.786 359.219 163.234 358.536V350.12C162.775 349.437 162.22 348.909 161.57 348.536C160.919 348.152 160.204 347.96 159.426 347.96ZM178.757 345.8C180.346 345.8 181.674 346.163 182.741 346.888C183.818 347.603 184.624 348.616 185.157 349.928C185.701 351.24 185.973 352.787 185.973 354.568C185.973 356.285 185.696 357.805 185.141 359.128C184.586 360.451 183.77 361.491 182.693 362.248C181.626 362.995 180.304 363.368 178.725 363.368C177.146 363.368 175.818 363.005 174.741 362.28C173.664 361.555 172.848 360.536 172.293 359.224C171.749 357.901 171.477 356.36 171.477 354.6C171.477 352.861 171.754 351.331 172.309 350.008C172.864 348.685 173.68 347.656 174.757 346.92C175.845 346.173 177.178 345.8 178.757 345.8ZM178.757 347.992C177.306 347.992 176.208 348.531 175.461 349.608C174.725 350.675 174.357 352.339 174.357 354.6C174.357 356.819 174.72 358.467 175.445 359.544C176.181 360.621 177.274 361.16 178.725 361.16C180.176 361.16 181.264 360.621 181.989 359.544C182.725 358.467 183.093 356.808 183.093 354.568C183.093 352.328 182.73 350.675 182.005 349.608C181.28 348.531 180.197 347.992 178.757 347.992ZM191.529 363V346.152H193.817L194.025 348.488C194.707 347.624 195.561 346.963 196.585 346.504C197.619 346.035 198.622 345.8 199.593 345.8C201.246 345.8 202.446 346.237 203.193 347.112C203.95 347.987 204.329 349.203 204.329 350.76V363H201.641V352.744C201.641 351.592 201.577 350.664 201.449 349.96C201.321 349.245 201.054 348.728 200.649 348.408C200.243 348.077 199.614 347.912 198.761 347.912C198.099 347.912 197.475 348.056 196.889 348.344C196.313 348.632 195.795 348.995 195.337 349.432C194.889 349.859 194.515 350.291 194.217 350.728V363H191.529ZM224.092 362.152C223.516 362.536 222.817 362.835 221.996 363.048C221.175 363.261 220.369 363.368 219.58 363.368C217.767 363.368 216.369 362.893 215.388 361.944C214.407 360.995 213.916 359.773 213.916 358.28V348.232H210.044V346.152H213.916V342.328L216.604 342.008V346.152H222.428L222.108 348.232H216.604V358.248C216.604 359.187 216.849 359.901 217.34 360.392C217.841 360.883 218.668 361.128 219.82 361.128C220.449 361.128 221.031 361.053 221.564 360.904C222.097 360.755 222.593 360.563 223.052 360.328L224.092 362.152ZM230.064 363V360.936H232.688V348.216H230.064V346.152H234.736L235.232 350.136C235.882 348.749 236.672 347.677 237.6 346.92C238.528 346.163 239.754 345.784 241.28 345.784C241.749 345.784 242.165 345.821 242.528 345.896C242.901 345.96 243.28 346.045 243.664 346.152L242.88 348.552C242.528 348.456 242.208 348.387 241.92 348.344C241.632 348.291 241.301 348.264 240.928 348.264C239.637 348.264 238.528 348.723 237.6 349.64C236.672 350.557 235.93 351.944 235.376 353.8V360.936H238.8V363H230.064ZM241.072 351.848V348.184L241.344 346.152H243.664L243.28 351.848H241.072ZM260.195 345.8C260.739 345.8 261.256 345.917 261.747 346.152C262.248 346.387 262.659 346.84 262.979 347.512C263.299 348.184 263.459 349.165 263.459 350.456V363H260.963V350.888C260.963 349.832 260.899 349.069 260.771 348.6C260.643 348.131 260.275 347.896 259.667 347.896C259.166 347.896 258.664 348.056 258.163 348.376C257.672 348.685 257.192 349.197 256.723 349.912V363H254.211V350.888C254.211 349.832 254.147 349.069 254.019 348.6C253.891 348.131 253.523 347.896 252.915 347.896C252.392 347.896 251.886 348.056 251.395 348.376C250.915 348.685 250.44 349.197 249.971 349.912V363H247.491V346.152H249.603L249.763 348.104C250.222 347.453 250.734 346.909 251.299 346.472C251.875 346.024 252.584 345.8 253.427 345.8C254.067 345.8 254.67 345.955 255.235 346.264C255.8 346.563 256.216 347.149 256.483 348.024C256.942 347.363 257.459 346.829 258.035 346.424C258.611 346.008 259.331 345.8 260.195 345.8ZM287.434 355.432V353.096H300.266V355.432H287.434ZM316.606 339.032C317.512 339.032 318.334 339.112 319.07 339.272C319.806 339.432 320.504 339.656 321.166 339.944L320.302 341.944C319.758 341.709 319.182 341.533 318.574 341.416C317.966 341.299 317.336 341.24 316.686 341.24C315.512 341.24 314.627 341.469 314.03 341.928C313.443 342.387 313.15 343.091 313.15 344.04V347.464H318.862L318.574 349.576H313.15V363H310.462V349.576H306.446V347.464H310.462V344.104C310.462 343.059 310.728 342.157 311.262 341.4C311.806 340.643 312.542 340.061 313.47 339.656C314.398 339.24 315.443 339.032 316.606 339.032ZM326.001 363V360.936H328.625V348.216H326.001V346.152H330.673L331.169 350.136C331.82 348.749 332.609 347.677 333.537 346.92C334.465 346.163 335.692 345.784 337.217 345.784C337.686 345.784 338.102 345.821 338.465 345.896C338.838 345.96 339.217 346.045 339.601 346.152L338.817 348.552C338.465 348.456 338.145 348.387 337.857 348.344C337.569 348.291 337.238 348.264 336.865 348.264C335.574 348.264 334.465 348.723 333.537 349.64C332.609 350.557 331.868 351.944 331.313 353.8V360.936H334.737V363H326.001ZM337.009 351.848V348.184L337.281 346.152H339.601L339.217 351.848H337.009ZM381.58 354.152V351.816H393.756V354.152H381.58ZM366.619 354.152V351.816H378.795V354.152H366.619ZM402.591 363V346.152H404.879L405.087 348.488C405.77 347.624 406.623 346.963 407.647 346.504C408.682 346.035 409.684 345.8 410.655 345.8C412.308 345.8 413.508 346.237 414.255 347.112C415.012 347.987 415.391 349.203 415.391 350.76V363H412.703V352.744C412.703 351.592 412.639 350.664 412.511 349.96C412.383 349.245 412.116 348.728 411.711 348.408C411.306 348.077 410.676 347.912 409.823 347.912C409.162 347.912 408.538 348.056 407.951 348.344C407.375 348.632 406.858 348.995 406.399 349.432C405.951 349.859 405.578 350.291 405.279 350.728V363H402.591ZM428.195 345.8C429.784 345.8 431.112 346.163 432.179 346.888C433.256 347.603 434.061 348.616 434.595 349.928C435.139 351.24 435.411 352.787 435.411 354.568C435.411 356.285 435.133 357.805 434.579 359.128C434.024 360.451 433.208 361.491 432.131 362.248C431.064 362.995 429.741 363.368 428.163 363.368C426.584 363.368 425.256 363.005 424.179 362.28C423.101 361.555 422.285 360.536 421.731 359.224C421.187 357.901 420.914 356.36 420.914 354.6C420.914 352.861 421.192 351.331 421.747 350.008C422.301 348.685 423.117 347.656 424.195 346.92C425.283 346.173 426.616 345.8 428.195 345.8ZM428.195 347.992C426.744 347.992 425.645 348.531 424.899 349.608C424.163 350.675 423.795 352.339 423.795 354.6C423.795 356.819 424.157 358.467 424.883 359.544C425.619 360.621 426.712 361.16 428.163 361.16C429.613 361.16 430.701 360.621 431.427 359.544C432.163 358.467 432.531 356.808 432.531 354.568C432.531 352.328 432.168 350.675 431.443 349.608C430.717 348.531 429.635 347.992 428.195 347.992ZM440.934 355.432V353.096H453.766V355.432H440.934ZM467.69 345.8C469.183 345.8 470.372 346.163 471.258 346.888C472.154 347.613 472.799 348.637 473.194 349.96C473.588 351.272 473.786 352.808 473.786 354.568C473.786 356.264 473.546 357.779 473.066 359.112C472.596 360.435 471.882 361.475 470.922 362.232C469.962 362.989 468.751 363.368 467.29 363.368C465.444 363.368 463.962 362.717 462.842 361.416V369.448L460.154 369.784V346.152H462.442L462.666 348.504C463.284 347.64 464.02 346.973 464.874 346.504C465.738 346.035 466.676 345.8 467.69 345.8ZM467.05 347.96C466.122 347.96 465.3 348.243 464.586 348.808C463.882 349.363 463.3 349.981 462.842 350.664V359.016C463.279 359.667 463.828 360.184 464.49 360.568C465.162 360.941 465.898 361.128 466.698 361.128C468.095 361.128 469.146 360.595 469.85 359.528C470.554 358.461 470.906 356.803 470.906 354.552C470.906 353.08 470.767 351.859 470.49 350.888C470.212 349.907 469.791 349.176 469.226 348.696C468.66 348.205 467.935 347.96 467.05 347.96ZM479.501 363V360.936H482.125V348.216H479.501V346.152H484.173L484.669 350.136C485.32 348.749 486.109 347.677 487.037 346.92C487.965 346.163 489.192 345.784 490.717 345.784C491.186 345.784 491.602 345.821 491.965 345.896C492.338 345.96 492.717 346.045 493.101 346.152L492.317 348.552C491.965 348.456 491.645 348.387 491.357 348.344C491.069 348.291 490.738 348.264 490.365 348.264C489.074 348.264 487.965 348.723 487.037 349.64C486.109 350.557 485.368 351.944 484.813 353.8V360.936H488.237V363H479.501ZM490.509 351.848V348.184L490.781 346.152H493.101L492.717 351.848H490.509ZM500.641 355.528C500.694 356.829 500.945 357.896 501.393 358.728C501.841 359.549 502.433 360.157 503.169 360.552C503.905 360.936 504.705 361.128 505.569 361.128C506.433 361.128 507.211 361 507.905 360.744C508.609 360.488 509.329 360.109 510.065 359.608L511.329 361.384C510.539 362.003 509.638 362.488 508.625 362.84C507.622 363.192 506.593 363.368 505.537 363.368C503.905 363.368 502.513 363 501.361 362.264C500.209 361.528 499.329 360.504 498.721 359.192C498.123 357.869 497.825 356.339 497.825 354.6C497.825 352.893 498.129 351.379 498.737 350.056C499.345 348.733 500.198 347.693 501.297 346.936C502.395 346.179 503.691 345.8 505.185 345.8C506.603 345.8 507.825 346.136 508.849 346.808C509.873 347.469 510.657 348.419 511.201 349.656C511.755 350.883 512.033 352.349 512.033 354.056C512.033 354.344 512.027 354.616 512.017 354.872C512.006 355.117 511.99 355.336 511.969 355.528H500.641ZM505.217 348.008C503.969 348.008 502.923 348.451 502.081 349.336C501.249 350.221 500.774 351.592 500.657 353.448H509.441C509.409 351.645 509.014 350.291 508.257 349.384C507.499 348.467 506.486 348.008 505.217 348.008ZM523.444 361.144C524.735 361.144 525.753 360.904 526.5 360.424C527.257 359.933 527.636 359.283 527.636 358.472C527.636 357.96 527.54 357.517 527.348 357.144C527.167 356.771 526.788 356.435 526.212 356.136C525.636 355.837 524.751 355.539 523.556 355.24C522.393 354.952 521.38 354.621 520.516 354.248C519.663 353.864 518.996 353.368 518.516 352.76C518.047 352.152 517.812 351.363 517.812 350.392C517.812 349.443 518.079 348.627 518.612 347.944C519.156 347.251 519.908 346.723 520.868 346.36C521.828 345.987 522.943 345.8 524.212 345.8C525.567 345.8 526.745 345.981 527.748 346.344C528.761 346.696 529.62 347.133 530.324 347.656L529.14 349.48C528.5 349.043 527.796 348.685 527.028 348.408C526.26 348.12 525.332 347.976 524.244 347.976C522.921 347.976 521.983 348.184 521.428 348.6C520.873 349.005 520.596 349.533 520.596 350.184C520.596 350.675 520.729 351.085 520.996 351.416C521.273 351.736 521.737 352.029 522.388 352.296C523.039 352.552 523.935 352.835 525.076 353.144C526.175 353.432 527.129 353.779 527.94 354.184C528.761 354.589 529.401 355.123 529.86 355.784C530.319 356.445 530.548 357.299 530.548 358.344C530.548 359.539 530.207 360.509 529.524 361.256C528.841 361.992 527.956 362.531 526.868 362.872C525.791 363.203 524.649 363.368 523.444 363.368C521.919 363.368 520.617 363.149 519.54 362.712C518.473 362.264 517.577 361.725 516.852 361.096L518.388 359.32C519.049 359.864 519.807 360.307 520.66 360.648C521.524 360.979 522.452 361.144 523.444 361.144ZM539.016 355.528C539.069 356.829 539.32 357.896 539.768 358.728C540.216 359.549 540.808 360.157 541.544 360.552C542.28 360.936 543.08 361.128 543.944 361.128C544.808 361.128 545.586 361 546.28 360.744C546.984 360.488 547.704 360.109 548.44 359.608L549.704 361.384C548.914 362.003 548.013 362.488 547 362.84C545.997 363.192 544.968 363.368 543.912 363.368C542.28 363.368 540.888 363 539.736 362.264C538.584 361.528 537.704 360.504 537.096 359.192C536.498 357.869 536.2 356.339 536.2 354.6C536.2 352.893 536.504 351.379 537.112 350.056C537.72 348.733 538.573 347.693 539.672 346.936C540.77 346.179 542.066 345.8 543.56 345.8C544.978 345.8 546.2 346.136 547.224 346.808C548.248 347.469 549.032 348.419 549.576 349.656C550.13 350.883 550.408 352.349 550.408 354.056C550.408 354.344 550.402 354.616 550.392 354.872C550.381 355.117 550.365 355.336 550.344 355.528H539.016ZM543.592 348.008C542.344 348.008 541.298 348.451 540.456 349.336C539.624 350.221 539.149 351.592 539.032 353.448H547.816C547.784 351.645 547.389 350.291 546.632 349.384C545.874 348.467 544.861 348.008 543.592 348.008ZM556.251 363V360.936H558.875V348.216H556.251V346.152H560.923L561.419 350.136C562.07 348.749 562.859 347.677 563.787 346.92C564.715 346.163 565.942 345.784 567.467 345.784C567.936 345.784 568.352 345.821 568.715 345.896C569.088 345.96 569.467 346.045 569.851 346.152L569.067 348.552C568.715 348.456 568.395 348.387 568.107 348.344C567.819 348.291 567.488 348.264 567.115 348.264C565.824 348.264 564.715 348.723 563.787 349.64C562.859 350.557 562.118 351.944 561.563 353.8V360.936H564.987V363H556.251ZM567.259 351.848V348.184L567.531 346.152H569.851L569.467 351.848H567.259ZM589.326 346.152L583.199 363H580.079L573.999 346.152H576.847L581.727 360.552L586.543 346.152H589.326ZM596.578 355.528C596.631 356.829 596.882 357.896 597.33 358.728C597.778 359.549 598.37 360.157 599.106 360.552C599.842 360.936 600.642 361.128 601.506 361.128C602.37 361.128 603.149 361 603.842 360.744C604.546 360.488 605.266 360.109 606.002 359.608L607.266 361.384C606.477 362.003 605.575 362.488 604.562 362.84C603.559 363.192 602.53 363.368 601.474 363.368C599.842 363.368 598.45 363 597.298 362.264C596.146 361.528 595.266 360.504 594.658 359.192C594.061 357.869 593.762 356.339 593.762 354.6C593.762 352.893 594.066 351.379 594.674 350.056C595.282 348.733 596.135 347.693 597.234 346.936C598.333 346.179 599.629 345.8 601.122 345.8C602.541 345.8 603.762 346.136 604.786 346.808C605.81 347.469 606.594 348.419 607.138 349.656C607.693 350.883 607.97 352.349 607.97 354.056C607.97 354.344 607.965 354.616 607.954 354.872C607.943 355.117 607.927 355.336 607.906 355.528H596.578ZM601.154 348.008C599.906 348.008 598.861 348.451 598.018 349.336C597.186 350.221 596.711 351.592 596.594 353.448H605.378C605.346 351.645 604.951 350.291 604.194 349.384C603.437 348.467 602.423 348.008 601.154 348.008ZM613.622 355.432V353.096H626.454V355.432H613.622ZM633.001 363V360.936H635.625V348.216H633.001V346.152H637.673L638.169 350.136C638.82 348.749 639.609 347.677 640.537 346.92C641.465 346.163 642.692 345.784 644.217 345.784C644.686 345.784 645.102 345.821 645.465 345.896C645.838 345.96 646.217 346.045 646.601 346.152L645.817 348.552C645.465 348.456 645.145 348.387 644.857 348.344C644.569 348.291 644.238 348.264 643.865 348.264C642.574 348.264 641.465 348.723 640.537 349.64C639.609 350.557 638.868 351.944 638.313 353.8V360.936H641.737V363H633.001ZM644.009 351.848V348.184L644.281 346.152H646.601L646.217 351.848H644.009ZM658.445 345.8C660.034 345.8 661.362 346.163 662.429 346.888C663.506 347.603 664.311 348.616 664.845 349.928C665.389 351.24 665.661 352.787 665.661 354.568C665.661 356.285 665.383 357.805 664.829 359.128C664.274 360.451 663.458 361.491 662.381 362.248C661.314 362.995 659.991 363.368 658.413 363.368C656.834 363.368 655.506 363.005 654.429 362.28C653.351 361.555 652.535 360.536 651.981 359.224C651.437 357.901 651.164 356.36 651.164 354.6C651.164 352.861 651.442 351.331 651.997 350.008C652.551 348.685 653.367 347.656 654.445 346.92C655.533 346.173 656.866 345.8 658.445 345.8ZM658.445 347.992C656.994 347.992 655.895 348.531 655.149 349.608C654.413 350.675 654.045 352.339 654.045 354.6C654.045 356.819 654.407 358.467 655.133 359.544C655.869 360.621 656.962 361.16 658.413 361.16C659.863 361.16 660.951 360.621 661.677 359.544C662.413 358.467 662.781 356.808 662.781 354.568C662.781 352.328 662.418 350.675 661.693 349.608C660.967 348.531 659.885 347.992 658.445 347.992ZM677.632 345.8C679.221 345.8 680.549 346.163 681.616 346.888C682.693 347.603 683.499 348.616 684.032 349.928C684.576 351.24 684.848 352.787 684.848 354.568C684.848 356.285 684.571 357.805 684.016 359.128C683.461 360.451 682.645 361.491 681.568 362.248C680.501 362.995 679.179 363.368 677.6 363.368C676.021 363.368 674.693 363.005 673.616 362.28C672.539 361.555 671.723 360.536 671.168 359.224C670.624 357.901 670.352 356.36 670.352 354.6C670.352 352.861 670.629 351.331 671.184 350.008C671.739 348.685 672.555 347.656 673.632 346.92C674.72 346.173 676.053 345.8 677.632 345.8ZM677.632 347.992C676.181 347.992 675.083 348.531 674.336 349.608C673.6 350.675 673.232 352.339 673.232 354.6C673.232 356.819 673.595 358.467 674.32 359.544C675.056 360.621 676.149 361.16 677.6 361.16C679.051 361.16 680.139 360.621 680.864 359.544C681.6 358.467 681.968 356.808 681.968 354.568C681.968 352.328 681.605 350.675 680.88 349.608C680.155 348.531 679.072 347.992 677.632 347.992ZM703.78 362.152C703.204 362.536 702.505 362.835 701.684 363.048C700.862 363.261 700.057 363.368 699.268 363.368C697.454 363.368 696.057 362.893 695.076 361.944C694.094 360.995 693.604 359.773 693.604 358.28V348.232H689.732V346.152H693.604V342.328L696.292 342.008V346.152H702.116L701.796 348.232H696.292V358.248C696.292 359.187 696.537 359.901 697.028 360.392C697.529 360.883 698.356 361.128 699.508 361.128C700.137 361.128 700.718 361.053 701.252 360.904C701.785 360.755 702.281 360.563 702.74 360.328L703.78 362.152ZM729.419 366.296L727.243 365.336L740.939 337.096L743.083 338.152L729.419 366.296ZM62.944 403.144C64.2347 403.144 65.2533 402.904 66 402.424C66.7573 401.933 67.136 401.283 67.136 400.472C67.136 399.96 67.04 399.517 66.848 399.144C66.6667 398.771 66.288 398.435 65.712 398.136C65.136 397.837 64.2507 397.539 63.056 397.24C61.8933 396.952 60.88 396.621 60.016 396.248C59.1627 395.864 58.496 395.368 58.016 394.76C57.5467 394.152 57.312 393.363 57.312 392.392C57.312 391.443 57.5787 390.627 58.112 389.944C58.656 389.251 59.408 388.723 60.368 388.36C61.328 387.987 62.4427 387.8 63.712 387.8C65.0667 387.8 66.2453 387.981 67.248 388.344C68.2613 388.696 69.12 389.133 69.824 389.656L68.64 391.48C68 391.043 67.296 390.685 66.528 390.408C65.76 390.12 64.832 389.976 63.744 389.976C62.4213 389.976 61.4827 390.184 60.928 390.6C60.3733 391.005 60.096 391.533 60.096 392.184C60.096 392.675 60.2293 393.085 60.496 393.416C60.7733 393.736 61.2373 394.029 61.888 394.296C62.5387 394.552 63.4347 394.835 64.576 395.144C65.6747 395.432 66.6293 395.779 67.44 396.184C68.2613 396.589 68.9013 397.123 69.36 397.784C69.8187 398.445 70.048 399.299 70.048 400.344C70.048 401.539 69.7067 402.509 69.024 403.256C68.3413 403.992 67.456 404.531 66.368 404.872C65.2907 405.203 64.1493 405.368 62.944 405.368C61.4187 405.368 60.1173 405.149 59.04 404.712C57.9733 404.264 57.0773 403.725 56.352 403.096L57.888 401.32C58.5493 401.864 59.3067 402.307 60.16 402.648C61.024 402.979 61.952 403.144 62.944 403.144ZM79.0915 388.152V400.088C79.0915 401.197 79.3208 401.997 79.7795 402.488C80.2382 402.979 80.9528 403.224 81.9235 403.224C82.8515 403.224 83.7262 402.963 84.5475 402.44C85.3795 401.907 86.0248 401.277 86.4835 400.552V388.152H89.1715V405H86.8835L86.6595 402.728C85.9982 403.581 85.1822 404.237 84.2115 404.696C83.2408 405.144 82.2595 405.368 81.2675 405.368C79.6355 405.368 78.4142 404.936 77.6035 404.072C76.8035 403.197 76.4035 401.976 76.4035 400.408V388.152H79.0915ZM105.671 381.032L108.359 381.368V405H106.007L105.751 402.776C105.122 403.672 104.396 404.328 103.575 404.744C102.764 405.16 101.895 405.368 100.967 405.368C99.5057 405.368 98.3003 405 97.351 404.264C96.4017 403.528 95.6977 402.504 95.239 401.192C94.7803 399.869 94.551 398.339 94.551 396.6C94.551 394.915 94.8123 393.411 95.335 392.088C95.8577 390.755 96.6097 389.709 97.591 388.952C98.583 388.184 99.7723 387.8 101.159 387.8C102.13 387.8 102.983 387.971 103.719 388.312C104.455 388.643 105.106 389.133 105.671 389.784V381.032ZM101.863 389.96C100.455 389.96 99.3723 390.509 98.615 391.608C97.8577 392.707 97.479 394.371 97.479 396.6C97.479 398.051 97.6337 399.267 97.943 400.248C98.2523 401.229 98.7057 401.965 99.303 402.456C99.911 402.947 100.652 403.192 101.527 403.192C102.487 403.192 103.303 402.92 103.975 402.376C104.658 401.832 105.223 401.219 105.671 400.536V392.12C105.212 391.437 104.658 390.909 104.007 390.536C103.356 390.152 102.642 389.96 101.863 389.96ZM121.195 387.8C122.784 387.8 124.112 388.163 125.179 388.888C126.256 389.603 127.061 390.616 127.595 391.928C128.139 393.24 128.411 394.787 128.411 396.568C128.411 398.285 128.133 399.805 127.579 401.128C127.024 402.451 126.208 403.491 125.131 404.248C124.064 404.995 122.741 405.368 121.163 405.368C119.584 405.368 118.256 405.005 117.179 404.28C116.101 403.555 115.285 402.536 114.731 401.224C114.187 399.901 113.914 398.36 113.914 396.6C113.914 394.861 114.192 393.331 114.747 392.008C115.301 390.685 116.117 389.656 117.195 388.92C118.283 388.173 119.616 387.8 121.195 387.8ZM121.195 389.992C119.744 389.992 118.645 390.531 117.899 391.608C117.163 392.675 116.795 394.339 116.795 396.6C116.795 398.819 117.157 400.467 117.883 401.544C118.619 402.621 119.712 403.16 121.163 403.16C122.613 403.16 123.701 402.621 124.427 401.544C125.163 400.467 125.531 398.808 125.531 396.568C125.531 394.328 125.168 392.675 124.443 391.608C123.717 390.531 122.635 389.992 121.195 389.992ZM163.234 381.032L165.922 381.368V405H163.57L163.314 402.776C162.684 403.672 161.959 404.328 161.138 404.744C160.327 405.16 159.458 405.368 158.53 405.368C157.068 405.368 155.863 405 154.914 404.264C153.964 403.528 153.26 402.504 152.802 401.192C152.343 399.869 152.114 398.339 152.114 396.6C152.114 394.915 152.375 393.411 152.898 392.088C153.42 390.755 154.172 389.709 155.154 388.952C156.146 388.184 157.335 387.8 158.722 387.8C159.692 387.8 160.546 387.971 161.282 388.312C162.018 388.643 162.668 389.133 163.234 389.784V381.032ZM159.426 389.96C158.018 389.96 156.935 390.509 156.178 391.608C155.42 392.707 155.042 394.371 155.042 396.6C155.042 398.051 155.196 399.267 155.506 400.248C155.815 401.229 156.268 401.965 156.866 402.456C157.474 402.947 158.215 403.192 159.09 403.192C160.05 403.192 160.866 402.92 161.538 402.376C162.22 401.832 162.786 401.219 163.234 400.536V392.12C162.775 391.437 162.22 390.909 161.57 390.536C160.919 390.152 160.204 389.96 159.426 389.96ZM178.757 387.8C180.346 387.8 181.674 388.163 182.741 388.888C183.818 389.603 184.624 390.616 185.157 391.928C185.701 393.24 185.973 394.787 185.973 396.568C185.973 398.285 185.696 399.805 185.141 401.128C184.586 402.451 183.77 403.491 182.693 404.248C181.626 404.995 180.304 405.368 178.725 405.368C177.146 405.368 175.818 405.005 174.741 404.28C173.664 403.555 172.848 402.536 172.293 401.224C171.749 399.901 171.477 398.36 171.477 396.6C171.477 394.861 171.754 393.331 172.309 392.008C172.864 390.685 173.68 389.656 174.757 388.92C175.845 388.173 177.178 387.8 178.757 387.8ZM178.757 389.992C177.306 389.992 176.208 390.531 175.461 391.608C174.725 392.675 174.357 394.339 174.357 396.6C174.357 398.819 174.72 400.467 175.445 401.544C176.181 402.621 177.274 403.16 178.725 403.16C180.176 403.16 181.264 402.621 181.989 401.544C182.725 400.467 183.093 398.808 183.093 396.568C183.093 394.328 182.73 392.675 182.005 391.608C181.28 390.531 180.197 389.992 178.757 389.992ZM191.529 405V388.152H193.817L194.025 390.488C194.707 389.624 195.561 388.963 196.585 388.504C197.619 388.035 198.622 387.8 199.593 387.8C201.246 387.8 202.446 388.237 203.193 389.112C203.95 389.987 204.329 391.203 204.329 392.76V405H201.641V394.744C201.641 393.592 201.577 392.664 201.449 391.96C201.321 391.245 201.054 390.728 200.649 390.408C200.243 390.077 199.614 389.912 198.761 389.912C198.099 389.912 197.475 390.056 196.889 390.344C196.313 390.632 195.795 390.995 195.337 391.432C194.889 391.859 194.515 392.291 194.217 392.728V405H191.529ZM224.092 404.152C223.516 404.536 222.817 404.835 221.996 405.048C221.175 405.261 220.369 405.368 219.58 405.368C217.767 405.368 216.369 404.893 215.388 403.944C214.407 402.995 213.916 401.773 213.916 400.28V390.232H210.044V388.152H213.916V384.328L216.604 384.008V388.152H222.428L222.108 390.232H216.604V400.248C216.604 401.187 216.849 401.901 217.34 402.392C217.841 402.883 218.668 403.128 219.82 403.128C220.449 403.128 221.031 403.053 221.564 402.904C222.097 402.755 222.593 402.563 223.052 402.328L224.092 404.152ZM230.064 405V402.936H232.688V390.216H230.064V388.152H234.736L235.232 392.136C235.882 390.749 236.672 389.677 237.6 388.92C238.528 388.163 239.754 387.784 241.28 387.784C241.749 387.784 242.165 387.821 242.528 387.896C242.901 387.96 243.28 388.045 243.664 388.152L242.88 390.552C242.528 390.456 242.208 390.387 241.92 390.344C241.632 390.291 241.301 390.264 240.928 390.264C239.637 390.264 238.528 390.723 237.6 391.64C236.672 392.557 235.93 393.944 235.376 395.8V402.936H238.8V405H230.064ZM241.072 393.848V390.184L241.344 388.152H243.664L243.28 393.848H241.072ZM260.195 387.8C260.739 387.8 261.256 387.917 261.747 388.152C262.248 388.387 262.659 388.84 262.979 389.512C263.299 390.184 263.459 391.165 263.459 392.456V405H260.963V392.888C260.963 391.832 260.899 391.069 260.771 390.6C260.643 390.131 260.275 389.896 259.667 389.896C259.166 389.896 258.664 390.056 258.163 390.376C257.672 390.685 257.192 391.197 256.723 391.912V405H254.211V392.888C254.211 391.832 254.147 391.069 254.019 390.6C253.891 390.131 253.523 389.896 252.915 389.896C252.392 389.896 251.886 390.056 251.395 390.376C250.915 390.685 250.44 391.197 249.971 391.912V405H247.491V388.152H249.603L249.763 390.104C250.222 389.453 250.734 388.909 251.299 388.472C251.875 388.024 252.584 387.8 253.427 387.8C254.067 387.8 254.67 387.955 255.235 388.264C255.8 388.563 256.216 389.149 256.483 390.024C256.942 389.363 257.459 388.829 258.035 388.424C258.611 388.008 259.331 387.8 260.195 387.8ZM287.434 397.432V395.096H300.266V397.432H287.434ZM316.606 381.032C317.512 381.032 318.334 381.112 319.07 381.272C319.806 381.432 320.504 381.656 321.166 381.944L320.302 383.944C319.758 383.709 319.182 383.533 318.574 383.416C317.966 383.299 317.336 383.24 316.686 383.24C315.512 383.24 314.627 383.469 314.03 383.928C313.443 384.387 313.15 385.091 313.15 386.04V389.464H318.862L318.574 391.576H313.15V405H310.462V391.576H306.446V389.464H310.462V386.104C310.462 385.059 310.728 384.157 311.262 383.4C311.806 382.643 312.542 382.061 313.47 381.656C314.398 381.24 315.443 381.032 316.606 381.032ZM326.001 405V402.936H328.625V390.216H326.001V388.152H330.673L331.169 392.136C331.82 390.749 332.609 389.677 333.537 388.92C334.465 388.163 335.692 387.784 337.217 387.784C337.686 387.784 338.102 387.821 338.465 387.896C338.838 387.96 339.217 388.045 339.601 388.152L338.817 390.552C338.465 390.456 338.145 390.387 337.857 390.344C337.569 390.291 337.238 390.264 336.865 390.264C335.574 390.264 334.465 390.723 333.537 391.64C332.609 392.557 331.868 393.944 331.313 395.8V402.936H334.737V405H326.001ZM337.009 393.848V390.184L337.281 388.152H339.601L339.217 393.848H337.009ZM367.403 408.296L381.068 380.152L378.923 379.096L365.227 407.336L367.403 408.296ZM386.54 385.72H389.26L389.052 392.2L395.132 390.04L395.948 392.568L389.756 394.392L393.708 399.512L391.564 401.08L387.9 395.736L384.236 401.08L382.092 399.512L386.044 394.392L379.851 392.568L380.668 390.04L386.748 392.2L386.54 385.72Z" fill="#A6E3A1"/>
</svg>
